<svg xmlns="http://www.w3.org/2000/svg" xmlns:xlink="http://www.w3.org/1999/xlink" viewBox="0 0 1259.59 487.49"><defs><style>.cls-1,.cls-3{fill:#fff;}.cls-1,.cls-2,.cls-3{stroke:#fff;}.cls-1,.cls-2{stroke-miterlimit:10;stroke-width:0.1px;}.cls-3{stroke-linecap:round;stroke-miterlimit:5;stroke-width:3px;}.cls-4{fill:url(#linear-gradient);}</style><linearGradient id="linear-gradient" x1="394.77" y1="206.49" x2="484.48" y2="308.43" gradientTransform="matrix(0.98, 0.09, -0.09, 0.91, -90.06, 45.8)" gradientUnits="userSpaceOnUse"><stop offset="0"/><stop offset="0.67" stop-color="#d1d1d1" stop-opacity="0"/></linearGradient></defs><title>Dicey Logo Black White (R)</title><g id="Layer_2" data-name="Layer 2"><g id="Layer_1-2" data-name="Layer 1"><path d="M700.49,451.91q5.67,4.06,15.82,4.06a44.41,44.41,0,0,0,10-1.16,53.5,53.5,0,0,0,9.15-2.9,20.46,20.46,0,0,1,3.91,5.66,17.56,17.56,0,0,1,1.6,7.69q0,8.72-7.83,14.37t-25.26,5.66q-22.92,0-36.13-10.31t-13.21-34.1V307.66c1.55-.39,3.82-.87,6.82-1.46a51.22,51.22,0,0,1,9.72-.87q10.17,0,14.95,3.78t4.79,13.35v24.09H737.5a26.36,26.36,0,0,1,2.61,6.09,27.69,27.69,0,0,1,1.16,8.13q0,7.56-3.48,11a12.56,12.56,0,0,1-9.29,3.48H694.83v63.28Q694.83,447.85,700.49,451.91Z"/><path d="M797,429q4.07,14.81,15.09,21.48t27.29,6.67a67.27,67.27,0,0,0,22.49-3.62,82,82,0,0,0,16.69-7.7,19.34,19.34,0,0,1,6.68,6.39,15.83,15.83,0,0,1,2.61,8.71,15.24,15.24,0,0,1-3.92,10.3,31.76,31.76,0,0,1-10.74,7.69,67.71,67.71,0,0,1-16.11,4.94,108.79,108.79,0,0,1-20,1.74,99,99,0,0,1-31.2-4.65,63.61,63.61,0,0,1-24.1-14.07,65.42,65.42,0,0,1-15.67-23.37q-5.65-13.92-5.66-32.51,0-18,5.52-31.34a64.23,64.23,0,0,1,14.94-22.35,59.9,59.9,0,0,1,21.92-13.35,79.36,79.36,0,0,1,26.41-4.36,73.28,73.28,0,0,1,26.12,4.5,60.06,60.06,0,0,1,20.32,12.48,57.23,57.23,0,0,1,13.21,19.16A60.93,60.93,0,0,1,893.65,400q0,8.12-4.2,12.19t-11.76,5.22Zm32.22-61.82q-14.22,0-23.8,9.43t-10.74,26.85l64.44-9.58a32.41,32.41,0,0,0-8.42-18.72Q843.44,367.16,829.22,367.16Z"/><path d="M993.21,368.9a43.81,43.81,0,0,0-16.11,2.9,36,36,0,0,0-12.77,8.42,40.35,40.35,0,0,0-8.56,13.64,51.38,51.38,0,0,0-3.2,18.87q0,21.48,11.32,32.36T993.21,456a50.31,50.31,0,0,0,17.56-2.75,99.21,99.21,0,0,0,13.21-6,25.51,25.51,0,0,1,6.53,6.68,15.6,15.6,0,0,1,2.46,8.71q0,9.87-11.61,16.25T990,485.29a97.23,97.23,0,0,1-30.32-4.5A63.1,63.1,0,0,1,936,467.15a61,61,0,0,1-15.24-22.79q-5.37-13.64-5.37-31.63,0-18.28,5.81-32.08a63.13,63.13,0,0,1,39.18-36.57,88.45,88.45,0,0,1,28.44-4.5q19.46,0,31.06,6.82t11.61,16.69a15,15,0,0,1-2.47,8.42,23,23,0,0,1-5.65,6.1,108.22,108.22,0,0,0-12.92-5.95A47.89,47.89,0,0,0,993.21,368.9Z"/><path d="M1176,354.37q-15.87-13.8-42.6-13.81a69.29,69.29,0,0,0-18.66,2.35A87.34,87.34,0,0,0,1103.3,347v-80.3q0-17.1-5.49-23.84t-17.46-6.73a38.67,38.67,0,0,0-11.15,1.55c-3.44,1-6,1.9-7.82,2.59V456.92a64.58,64.58,0,0,0,1.45,14.77c.46,4.82,2,8.38,4.79,10.49a13.75,13.75,0,0,0,2.13,1.26c3.58,2.67,8.42,4.05,14.59,4.05a38.31,38.31,0,0,0,11.14-1.56c3.44-1,6-1.9,7.82-2.59V376.59a68.54,68.54,0,0,1,9-4.15,42.13,42.13,0,0,1,14.68-2.5q12.35,0,20,6.61t7.64,21.31v70.81q0,9.69,5,13.51t15.57,3.82a51.6,51.6,0,0,0,9.84-.88q4.56-.89,6.91-1.47V396.09Q1191.9,368.19,1176,354.37Z"/><path d="M760.65,20.32A19.58,19.58,0,0,1,766.6,6Q772.54,0,781.84,0t15.09,6a19.83,19.83,0,0,1,5.8,14.37A20.15,20.15,0,0,1,796.93,35q-5.8,6-15.09,6T766.6,35A19.89,19.89,0,0,1,760.65,20.32Zm2.9,42.08c1.55-.38,3.82-.87,6.82-1.45a51.22,51.22,0,0,1,9.72-.87q10.45,0,15.24,3.77t4.79,13.36V198.53q-2.32.58-6.82,1.45a51.22,51.22,0,0,1-9.72.87q-10.46,0-15.24-3.77t-4.79-13.35Z"/><path d="M909.25,86.49a43.6,43.6,0,0,0-16.1,2.91,35.86,35.86,0,0,0-12.78,8.41,40.56,40.56,0,0,0-8.56,13.65,51.29,51.29,0,0,0-3.19,18.86q0,21.48,11.32,32.36t29.31,10.89a50.26,50.26,0,0,0,17.56-2.76A99.35,99.35,0,0,0,940,164.86a25.2,25.2,0,0,1,6.53,6.68,15.58,15.58,0,0,1,2.47,8.7q0,9.87-11.61,16.26t-31.35,6.38a97.3,97.3,0,0,1-30.33-4.5,62.91,62.91,0,0,1-23.66-13.64A60.82,60.82,0,0,1,836.84,162q-5.39-13.64-5.37-31.64,0-18.28,5.8-32.07a63.12,63.12,0,0,1,39.19-36.57,88.41,88.41,0,0,1,28.44-4.5q19.44,0,31.06,6.82t11.61,16.69a15.1,15.1,0,0,1-2.47,8.42,23.09,23.09,0,0,1-5.66,6.09,107.49,107.49,0,0,0-12.92-6A47.85,47.85,0,0,0,909.25,86.49Z"/><path d="M1004.46,146.57q4,14.81,15.09,21.48t27.28,6.68a67.29,67.29,0,0,0,22.5-3.63,82.48,82.48,0,0,0,16.68-7.69,19.22,19.22,0,0,1,6.68,6.38,15.87,15.87,0,0,1,2.61,8.71,15.2,15.2,0,0,1-3.92,10.31,32,32,0,0,1-10.73,7.69,67.27,67.27,0,0,1-16.11,4.93,108.9,108.9,0,0,1-20,1.74,99.31,99.31,0,0,1-31.2-4.64,63.51,63.51,0,0,1-24.09-14.08,65.31,65.31,0,0,1-15.68-23.36q-5.65-13.93-5.66-32.51,0-18,5.52-31.35a64.35,64.35,0,0,1,15-22.35,60,60,0,0,1,21.91-13.35,79.65,79.65,0,0,1,26.41-4.35,73.37,73.37,0,0,1,26.13,4.5,59.92,59.92,0,0,1,20.31,12.48,57,57,0,0,1,13.21,19.16,60.88,60.88,0,0,1,4.79,24.23q0,8.13-4.21,12.19T1085.14,135Zm32.21-61.82q-14.22,0-23.8,9.44T1002.13,121l64.44-9.57a32.4,32.4,0,0,0-8.42-18.73Q1050.89,84.75,1036.67,84.75Z"/><path d="M720.16,11.61q-4.78-3.76-15.23-3.77a61.65,61.65,0,0,0-9.73.72,38.27,38.27,0,0,0-6.82,1.6V62.69a77.48,77.48,0,0,0-12.48-3.92,66.36,66.36,0,0,0-14.8-1.59,85,85,0,0,0-27.58,4.35,59.69,59.69,0,0,0-22.2,13.35,63.64,63.64,0,0,0-15,22.79q-5.52,13.78-5.51,32.94,0,36.87,20.46,54.71t55.29,17.85q15.67,0,27.58-3.91a85.86,85.86,0,0,0,19.15-8.57,31.83,31.83,0,0,0,8.71-7.83q2.9-4.06,2.9-10.74V25Q725,15.39,720.16,11.61Zm-29.8,125.31-50.48,28A7.36,7.36,0,0,1,629,158.44l.6-58.15a7.35,7.35,0,0,1,11.15-6.21l49.88,30.12A7.36,7.36,0,0,1,690.36,136.92Z"/><path d="M1254.1,64.08q-5.49-6.73-17.46-6.74a38.33,38.33,0,0,0-11.15,1.56c-3.44,1-6,1.9-7.81,2.59V167.27a65.57,65.57,0,0,1-11,5.26A41.9,41.9,0,0,1,1192,175q-12.35,0-20-6.61t-7.64-21.3V76.31q0-9.69-5-13.51T1143.83,59a51.49,51.49,0,0,0-9.84.89c-3,.58-5.34,1.08-6.91,1.46v87.56q0,27.92,15.87,41.72t42.6,13.81a68.89,68.89,0,0,0,18.66-2.35,86.15,86.15,0,0,0,13.47-5v81q0,17.1,5.49,23.84t17.46,6.73a38.31,38.31,0,0,0,11.14-1.55c3.44-1,6-1.9,7.82-2.59V87.92Q1259.59,70.82,1254.1,64.08Z"/><path class="cls-1" d="M441.44,262.06,248.84,134.93c-18.8-12.41-45.3-2.44-47.49,17.86L179,360.34c-2.17,20.12,21.19,35.34,42.18,27.49l215-80.42C457.16,299.54,460.11,274.38,441.44,262.06Z"/><path class="cls-1" d="M417.11,226.32,222.41,108.75A28.72,28.72,0,0,0,178.9,133l-2.33,227a28.74,28.74,0,0,0,42.61,25.37L416.21,276a28.69,28.69,0,0,0,.9-49.64Z"/><path class="cls-2" d="M393,6.45H152.46a32.15,32.15,0,0,0-27.84,16.07L4.36,230.83a32.1,32.1,0,0,0,0,32.14l120.26,208.3a32.13,32.13,0,0,0,27.84,16.07H393a32.12,32.12,0,0,0,27.83-16.07L541.09,263a32.15,32.15,0,0,0,0-32.14L420.82,22.52A32.14,32.14,0,0,0,393,6.45Z"/><path class="cls-3" d="M426.05,249.52l118-2.61m-405-236,54.72,101.86M196,380.05,137.09,481.91M412.94,225.24,224.72,111.58A27.74,27.74,0,0,0,182.65,135l-2.24,219.42A27.73,27.73,0,0,0,221.6,379L412.07,273.23A27.74,27.74,0,0,0,412.94,225.24Z"/><path class="cls-1" d="M413.28,226.92,223.72,112.45a28,28,0,0,0-42.36,23.62l-2.26,221a28,28,0,0,0,41.48,24.71L412.4,275.24a27.93,27.93,0,0,0,.88-48.32Z"/><path class="cls-4" d="M352.28,262.06l-91-60.09c-8.88-5.87-21.41-1.16-22.44,8.44l-10.59,98.11c-1,9.51,10,16.7,19.94,13l101.63-38C359.72,279.78,361.11,267.89,352.28,262.06Z"/><path class="cls-2" d="M350,239.28,249.13,178.36a14.88,14.88,0,0,0-22.55,12.57l-1.2,117.62a14.9,14.9,0,0,0,22.08,13.15L349.56,265a14.87,14.87,0,0,0,.46-25.72Z"/></g></g></svg>