<?xml version="1.0" encoding="utf-8"?>
<!-- Generator: Adobe Illustrator 26.3.1, SVG Export Plug-In . SVG Version: 6.00 Build 0)  -->
<svg version="1.1" id="Layer_1" xmlns="http://www.w3.org/2000/svg" xmlns:xlink="http://www.w3.org/1999/xlink" x="0px" y="0px"
	 viewBox="0 0 170 30" style="enable-background:new 0 0 170 30;" xml:space="preserve">
<style type="text/css">
	.st0{fill:#FFFFFF;}
	.st1{fill:#FFCB05;}
	.st2{clip-path:url(#SVGID_00000090997860715398501300000002543598038776103091_);fill:#FFFFFF;}
	.st3{fill:#00274C;}
	.st4{clip-path:url(#SVGID_00000165943906205741970170000001773217073729941376_);fill:#00274C;}
</style>
<g>
	<rect x="43.46" y="1.5" class="st0" width="0.56" height="25.88"/>
	<path class="st0" d="M140.42,27.41v-0.26c0.33-0.02,0.58-0.05,0.58-0.31c0-0.09-0.03-0.19-0.05-0.28l-0.14-0.49h-1.68l-0.15,0.41
		c-0.04,0.1-0.06,0.2-0.06,0.3c0,0.34,0.36,0.36,0.65,0.37v0.26h-1.97v-0.26c0.5-0.02,0.66-0.12,0.85-0.62l1.29-3.55l-0.08-0.12
		c0.55-0.18,0.71-0.27,0.95-0.44c0.09,0.32,0.11,0.36,0.21,0.7l1.06,3.25c0.19,0.57,0.28,0.72,0.79,0.77v0.26H140.42z M139.99,23.57
		l-0.7,1.99h1.38L139.99,23.57z M123.33,26.34c-0.21,0.34-0.72,1.19-2.04,1.19c-1.44,0-2.38-1.06-2.38-2.46
		c0-1.3,0.79-2.57,2.41-2.57c0.85,0,1.3,0.36,1.58,0.57l0.32-0.3l0.03,1.45l-0.22,0.04c-0.08-0.28-0.2-0.5-0.52-0.84
		c-0.14-0.16-0.5-0.47-1-0.47c-0.86,0-1.55,0.71-1.55,1.95c0,1.05,0.56,2.04,1.67,2.04c0.84,0,1.15-0.47,1.4-0.83L123.33,26.34z
		 M124.14,27.41v-0.26c0.54-0.05,0.55-0.16,0.55-0.62c0.01-0.17,0.01-0.34,0.01-0.51v-2.01c0-0.31,0-0.63-0.02-0.77
		c-0.03-0.29-0.16-0.32-0.54-0.36v-0.26h2.05v0.26c-0.4,0.04-0.55,0.06-0.6,0.32c-0.04,0.15-0.04,0.5-0.04,0.79v0.66
		c0.41,0.02,0.7,0.03,1.1,0.03c0.4,0,0.72-0.01,1.13-0.03v-0.8c-0.01-0.87-0.02-0.91-0.66-0.97v-0.25h2.07v0.25
		c-0.55,0.07-0.55,0.07-0.55,0.98v2.02c0,0.19,0,0.79,0.03,0.93c0.03,0.25,0.18,0.3,0.53,0.33v0.26h-2.07v-0.26
		c0.48-0.05,0.61-0.07,0.65-0.39c0.01-0.14,0.01-0.32,0.01-0.67v-0.88c-0.38-0.01-0.69-0.03-1.09-0.03c-0.41,0-0.74,0.01-1.15,0.03
		v0.88c0,1,0.02,1,0.64,1.06v0.26H124.14z M130.05,27.41v-0.26c0.47-0.06,0.56-0.11,0.57-0.61v-2.55c0-1,0-1.02-0.57-1.11v-0.25
		h1.99v0.25c-0.56,0.06-0.56,0.08-0.56,1.11v1.93c0,0.17,0.01,0.71,0.02,0.84c0.03,0.29,0.17,0.36,0.54,0.39v0.25H130.05z
		 M116.41,27.41v-0.26c0.47-0.06,0.56-0.11,0.57-0.61v-2.55c0-1,0-1.02-0.57-1.11v-0.25h1.98v0.25c-0.56,0.06-0.56,0.08-0.56,1.11
		v1.93c0,0.17,0.01,0.71,0.02,0.84c0.03,0.29,0.17,0.36,0.54,0.39v0.25H116.41z M113.4,27.41v-0.26c0.6-0.04,0.6-0.07,0.61-0.95
		v-2.41l-1.67,3.68h-0.42l-1.54-3.73l-0.03,2.81c0,0.47,0.05,0.56,0.56,0.6v0.26h-1.66v-0.26c0.39-0.02,0.54-0.07,0.56-0.39
		c0.01-0.13,0.03-0.53,0.04-0.8l0.07-2.01c0.01-0.16,0.01-0.39,0.01-0.55c0-0.47-0.09-0.51-0.52-0.52v-0.26h1.5l1.49,3.63l1.64-3.63
		h1.46v0.29c-0.57,0.03-0.57,0.1-0.57,0.84v1.97c0,0.33,0.01,0.73,0.03,0.98c0.03,0.36,0.16,0.42,0.54,0.45v0.26H113.4z
		 M142.97,27.41v-0.26c0.39-0.02,0.54-0.02,0.6-0.3c0.07-0.32,0.09-3.16,0.09-3.65c-0.26-0.25-0.37-0.29-0.69-0.32v-0.25h1.44
		c0.4,0.57,0.49,0.69,1.2,1.57l1.34,1.65v-2.14c-0.01-0.76-0.03-0.8-0.79-0.83v-0.25h1.89v0.25c-0.52,0.01-0.57,0.12-0.57,0.89
		l-0.07,3.7h-0.29l-0.43-0.53c-0.21-0.27-0.43-0.54-0.65-0.81l-1.89-2.33v2.48c0,0.78,0.05,0.8,0.79,0.88v0.25H142.97z
		 M103.05,25.01c0,1.66-1.13,2.52-2.4,2.52c-1.39,0-2.48-1-2.48-2.53c0-1.3,0.88-2.48,2.41-2.48
		C102.04,22.53,103.05,23.56,103.05,25.01L103.05,25.01z M100.66,27.09c0.27-0.01,0.65-0.14,0.95-0.59c0.34-0.52,0.41-1,0.39-1.62
		c-0.02-0.62-0.19-1.15-0.54-1.52c-0.15-0.16-0.46-0.41-0.85-0.39c-0.4,0-0.7,0.25-0.84,0.42c-0.34,0.39-0.5,0.92-0.5,1.54
		c0,0.62,0.08,1.1,0.44,1.6C100,26.96,100.38,27.09,100.66,27.09L100.66,27.09z M103.53,27.15v0.26h1.98v-0.26
		c-0.49-0.05-0.55-0.09-0.57-0.62l0-1.37h0.53c0.53,0,0.82,0.05,0.85,0.59h0.24v-1.58h-0.24c-0.02,0.52-0.17,0.57-0.75,0.57h-0.63
		v-1.66c0.17-0.02,0.27-0.03,0.57-0.03c0.94,0,1.24,0,1.37,0.74h0.23l-0.08-1.17h-3.51v0.25c0.34,0.04,0.49,0.06,0.54,0.28
		c0.03,0.15,0.04,0.68,0.04,0.87v1.68c0,0.13-0.01,0.71-0.02,0.82C104.08,27.05,104.02,27.1,103.53,27.15L103.53,27.15z
		 M62.39,27.38v-0.26c0.47-0.06,0.56-0.11,0.57-0.62v-2.55c-0.01-1-0.01-1.02-0.57-1.1v-0.26h1.99v0.26
		c-0.56,0.05-0.56,0.08-0.56,1.1v1.93c0,0.17,0.01,0.71,0.02,0.85c0.04,0.29,0.17,0.36,0.54,0.38v0.26H62.39z M83.48,27.38v-0.26
		c0.46-0.06,0.56-0.11,0.57-0.62v-2.55c0-1,0-1.02-0.57-1.1v-0.26h1.98v0.26c-0.56,0.05-0.56,0.08-0.56,1.1v1.93
		c0,0.17,0,0.71,0.02,0.85c0.03,0.29,0.17,0.36,0.54,0.38v0.26H83.48z M56.57,27.38v-0.26c0.39-0.01,0.54-0.02,0.6-0.3
		c0.07-0.32,0.09-3.16,0.09-3.65c-0.27-0.24-0.38-0.29-0.69-0.32v-0.26H58c0.4,0.57,0.49,0.7,1.19,1.57l1.34,1.66v-2.14
		c-0.01-0.76-0.03-0.8-0.78-0.82v-0.26h1.88v0.26c-0.52,0-0.57,0.11-0.57,0.89l-0.07,3.7H60.7l-0.43-0.54
		c-0.22-0.27-0.43-0.54-0.65-0.8l-1.89-2.34v2.48c0,0.77,0.05,0.8,0.79,0.88v0.26H56.57z M79.52,25.88l0.25-0.03
		c0.26,0.78,0.7,1.2,1.42,1.2c0.51,0,0.96-0.21,0.96-0.73c0-0.54-0.52-0.76-0.75-0.85c-0.19-0.07-0.4-0.14-0.58-0.21
		c-0.39-0.14-1.13-0.45-1.13-1.38c0-0.89,0.7-1.4,1.52-1.4c0.32,0,0.69,0.07,1.1,0.33l0.29-0.21l0.16,1.42l-0.24,0.05
		c-0.08-0.31-0.15-0.46-0.33-0.71c-0.23-0.3-0.55-0.44-0.93-0.44c-0.51,0-0.8,0.25-0.8,0.62c0,0.57,0.56,0.76,1.1,0.93
		c0.27,0.09,0.49,0.17,0.69,0.28c0.38,0.22,0.69,0.64,0.69,1.22c0,0.83-0.68,1.51-1.68,1.51c-0.65,0-1.05-0.26-1.24-0.38l-0.4-0.29
		L79.52,25.88z M87.39,27.38v-0.2c0.44-0.01,0.56-0.17,0.56-0.55V23.1h-0.6c-0.54,0-0.9-0.02-0.94,0.83h-0.25l0.04-1.34h4.35
		l0.04,1.34h-0.25c-0.04-0.86-0.4-0.83-0.94-0.83h-0.6v3.53c0,0.38,0.12,0.54,0.56,0.55v0.2H87.39z M52.9,22.59v0.26
		c-0.64,0.05-0.64,0.07-0.64,1.08v1.12c0,0.59,0.01,1.09,0.32,1.53c0.24,0.36,0.66,0.4,0.87,0.4c0.69,0,1.06-0.35,1.23-0.92
		c0.14-0.44,0.14-1.28,0.14-1.84c0-0.18,0-0.75,0-0.9c-0.03-0.44-0.25-0.45-0.68-0.48v-0.26h1.82v0.26
		c-0.45-0.01-0.54,0.09-0.57,0.57c-0.01,0.11-0.06,1.44-0.07,1.64c-0.01,0.36-0.04,0.73-0.12,1.07c-0.32,1.29-1.58,1.36-1.91,1.36
		c-0.27,0-0.81-0.04-1.25-0.34c-0.71-0.48-0.72-1.2-0.72-1.97v-1.09c-0.01-0.52-0.01-0.75-0.02-0.87c-0.04-0.3-0.19-0.36-0.55-0.38
		v-0.26H52.9z M69.87,22.59v0.26c-0.46,0.07-0.52,0.2-0.92,1.14l-1.46,3.48h-0.26l-1.31-3.53c-0.33-0.91-0.37-1.02-0.85-1.09v-0.26
		h2.27v0.26c-0.39,0.01-0.64,0.03-0.64,0.3c0,0.13,0.04,0.25,0.16,0.65l0.84,2.43l0.97-2.52c0.06-0.17,0.14-0.39,0.14-0.51
		c0-0.34-0.34-0.36-0.64-0.36v-0.26H69.87z M92.56,27.38v-0.26c0.38-0.04,0.52-0.05,0.61-0.15c0.11-0.11,0.11-0.23,0.11-0.75v-0.84
		l-1.27-1.97c-0.35-0.51-0.36-0.53-0.81-0.55v-0.27h2.49v0.27c-0.5,0.01-0.73,0.03-0.73,0.25c0,0.13,0.09,0.28,0.21,0.48l0.73,1.2
		l0.68-1.2c0.12-0.23,0.19-0.38,0.19-0.48c0-0.23-0.2-0.23-0.53-0.26v-0.27h1.87v0.27c-0.48,0.01-0.62,0.16-1.17,1.05l-0.75,1.25v1
		c0,0.87,0,0.94,0.72,0.98v0.26H92.56z M73.97,27.38c0-0.35,0.06-0.91,0.1-1.24h-0.23c-0.16,0.86-0.65,0.81-1.34,0.81
		c-0.64,0-0.77-0.17-0.77-0.48v-1.34h0.52c0.59,0,0.76,0.05,0.76,0.59h0.23v-1.58h-0.23c-0.05,0.43-0.13,0.57-0.75,0.57h-0.52v-1.69
		h0.59c0.81,0,1.11,0.06,1.21,0.71h0.22l-0.03-1.13h-3.41v0.25c0.34,0.03,0.49,0.05,0.54,0.28c0.04,0.15,0.04,0.67,0.04,0.86v1.68
		c0,0.13,0,0.7-0.01,0.82c-0.02,0.52-0.08,0.57-0.57,0.62v0.27H73.97z M137.34,25.29v0.26c-0.43,0.02-0.43,0.15-0.45,1.06v0.36
		c-0.37,0.23-0.9,0.56-1.84,0.56c-1.64,0-2.43-1.25-2.43-2.5c0-1.53,1.04-2.53,2.34-2.53c0.82,0,1.29,0.3,1.68,0.54l0.25-0.29
		l0.04,1.5l-0.19,0.03c-0.1-0.28-0.25-0.61-0.61-0.97c-0.16-0.16-0.46-0.36-0.95-0.36c-0.84,0-1.53,0.7-1.53,2.08
		c0,1.1,0.54,2.04,1.47,2.04c0.54,0,0.8-0.37,0.83-0.4c0.09-0.12,0.11-0.24,0.1-0.45c-0.02-0.61-0.11-0.62-0.64-0.68v-0.26H137.34z
		 M76.19,24.8c0.13,0.03,0.31,0.05,0.45,0.05c0.54,0,0.95-0.43,0.97-0.81c0.03-0.55-0.25-1.04-1.13-1.04c-0.13,0-0.2,0-0.29,0.03
		V24.8z M76.19,25.85c0.01,1.09,0.01,1.25,0.58,1.26v0.27h-2v-0.27c0.52-0.04,0.57-0.12,0.58-0.64c0.01-0.2,0.01-0.42,0.01-0.62
		v-1.73c0-0.57-0.01-0.78-0.03-0.93c-0.04-0.26-0.16-0.31-0.56-0.35v-0.25l2.17,0c1.18,0,1.55,0.56,1.55,1.23
		c0,0.46-0.29,1.06-0.95,1.27l0.85,1.47c0.3,0.57,0.47,0.7,0.86,0.75v0.16c-0.11,0.01-0.21,0.02-0.31,0.02
		c-0.9,0-1.28-0.31-1.66-1.12l-0.27-0.56c-0.29-0.6-0.38-0.56-0.83-0.57V25.85z M76.19,25.85"/>
	<path class="st1" d="M18.09,22.86l-7.41-10.13v7.37h2.95v7.28H0V20.1h2.76V8.78H0V1.5h10.71l7.39,10.2l7.39-10.2h10.7v7.28h-2.76
		V20.1h2.76v7.28H22.56V20.1h2.94v-7.37L18.09,22.86z M18.09,22.86"/>
	<path class="st0" d="M55.19,6.5V2.05L53.75,6.5h-0.5l-1.46-4.45V6.5h-0.41V1.62h0.71L53.52,6l1.4-4.38h0.69V6.5H55.19z M55.19,6.5"
		/>
	<rect x="56.67" y="1.62" class="st0" width="0.43" height="4.88"/>
	<path class="st0" d="M60.74,5.12c0,0.22-0.03,0.41-0.07,0.59c-0.05,0.18-0.13,0.33-0.25,0.46c-0.12,0.12-0.26,0.23-0.43,0.3
		c-0.17,0.08-0.37,0.11-0.61,0.11c-0.34,0-0.61-0.07-0.79-0.2c-0.18-0.13-0.32-0.3-0.41-0.52c-0.09-0.21-0.13-0.45-0.15-0.71
		c-0.01-0.25-0.02-0.52-0.02-0.79c0-0.29,0-0.55,0.01-0.78c0-0.23,0.02-0.44,0.04-0.63c0.07-0.96,0.53-1.44,1.38-1.44
		c0.39,0,0.7,0.1,0.93,0.31c0.22,0.21,0.33,0.54,0.33,1.01v0.09h-0.45c0-0.02,0-0.04,0-0.06c0-0.02,0-0.04,0.01-0.05
		c0-0.62-0.27-0.94-0.82-0.94c-0.24,0-0.43,0.06-0.55,0.17c-0.13,0.11-0.23,0.25-0.29,0.42c-0.06,0.17-0.1,0.35-0.11,0.55
		s-0.01,0.4-0.02,0.57v1.33c0,0.4,0.08,0.72,0.24,0.95c0.16,0.23,0.39,0.34,0.69,0.34c0.18,0,0.32-0.03,0.43-0.1
		c0.11-0.07,0.2-0.16,0.27-0.26c0.07-0.11,0.11-0.23,0.14-0.36c0.02-0.13,0.03-0.26,0.04-0.4h0.46V5.12z M60.74,5.12"/>
	<path class="st0" d="M63.85,6.5V4.17h-1.92V6.5H61.5V1.62h0.43v2.19h1.92V1.62h0.43V6.5H63.85z M63.85,6.5"/>
	<rect x="65.3" y="1.62" class="st0" width="0.43" height="4.88"/>
	<path class="st0" d="M69.1,2.87V2.8c0-0.29-0.08-0.51-0.23-0.67c-0.15-0.16-0.37-0.24-0.65-0.24c-0.2,0-0.37,0.03-0.51,0.09
		c-0.14,0.06-0.25,0.16-0.34,0.3c-0.09,0.14-0.16,0.31-0.2,0.52C67.14,3,67.12,3.26,67.12,3.57v0.67c0,0.32,0.01,0.61,0.03,0.85
		c0.02,0.25,0.08,0.45,0.16,0.62c0.09,0.17,0.2,0.29,0.34,0.38c0.14,0.09,0.34,0.13,0.6,0.13c0.3,0,0.57-0.05,0.81-0.16V4.3h-0.99
		V3.95h1.42v2.43c-0.19,0.06-0.39,0.11-0.61,0.15c-0.22,0.04-0.43,0.06-0.63,0.06c-0.38,0-0.67-0.06-0.88-0.18
		C67.16,6.3,67,6.14,66.89,5.93c-0.11-0.2-0.17-0.45-0.19-0.73c-0.02-0.29-0.03-0.58-0.04-0.9V3.8c0-0.29,0.01-0.57,0.03-0.84
		c0.02-0.27,0.09-0.52,0.18-0.73c0.1-0.21,0.25-0.38,0.46-0.51c0.21-0.13,0.5-0.2,0.87-0.2c0.25,0,0.46,0.03,0.62,0.09
		c0.17,0.06,0.31,0.15,0.41,0.27c0.1,0.12,0.18,0.26,0.22,0.43c0.04,0.16,0.06,0.35,0.07,0.57H69.1z M69.1,2.87"/>
	<path class="st0" d="M73.22,6.5l-0.39-1.28h-1.91L70.54,6.5H70.1l1.54-4.88h0.51l1.52,4.88H73.22z M71.88,2.09l-0.83,2.75h1.67
		L71.88,2.09z M71.88,2.09"/>
	<g>
		<defs>
			<rect id="SVGID_1_" x="0" y="1.5" width="170" height="27"/>
		</defs>
		<clipPath id="SVGID_00000041987823276654504560000011896799680165607868_">
			<use xlink:href="#SVGID_1_"  style="overflow:visible;"/>
		</clipPath>
		<path style="clip-path:url(#SVGID_00000041987823276654504560000011896799680165607868_);fill:#FFFFFF;" d="M76.71,6.5l-2-4.39
			V6.5h-0.43V1.62h0.66l2.01,4.39V1.62h0.43V6.5H76.71z M76.71,6.5"/>
		<path style="clip-path:url(#SVGID_00000041987823276654504560000011896799680165607868_);fill:#FFFFFF;" d="M82.74,4.27
			c0,0.31-0.01,0.61-0.04,0.89c-0.02,0.28-0.09,0.52-0.19,0.74c-0.11,0.21-0.25,0.38-0.45,0.51c-0.2,0.12-0.48,0.19-0.83,0.19
			c-0.47,0-0.83-0.14-1.07-0.43c-0.24-0.28-0.37-0.71-0.37-1.27V3.23c0-0.24,0.03-0.47,0.08-0.68c0.06-0.21,0.14-0.4,0.26-0.55
			c0.12-0.15,0.27-0.28,0.46-0.37c0.19-0.1,0.41-0.14,0.67-0.14c0.26,0,0.49,0.05,0.68,0.14c0.18,0.09,0.34,0.21,0.46,0.37
			c0.12,0.16,0.21,0.34,0.26,0.56c0.05,0.21,0.08,0.45,0.08,0.71V4.27z M82.31,3.47c0-0.21-0.01-0.41-0.04-0.59
			c-0.02-0.19-0.07-0.36-0.14-0.52c-0.07-0.15-0.18-0.27-0.32-0.35c-0.14-0.09-0.32-0.13-0.55-0.14c-0.23,0-0.41,0.05-0.55,0.14
			c-0.13,0.1-0.24,0.22-0.31,0.37c-0.07,0.15-0.12,0.31-0.14,0.5c-0.02,0.18-0.03,0.37-0.03,0.55v1.23c0,0.54,0.07,0.93,0.22,1.18
			c0.15,0.25,0.41,0.38,0.8,0.39c0.27,0,0.48-0.07,0.62-0.2c0.14-0.13,0.25-0.3,0.3-0.5c0.06-0.2,0.09-0.43,0.1-0.69
			c0.01-0.25,0.02-0.51,0.02-0.76V3.47z M82.31,3.47"/>
	</g>
	<path class="st0" d="M86.08,6.5l-2-4.39V6.5h-0.43V1.62h0.66l2.01,4.39V1.62h0.43V6.5H86.08z M86.08,6.5"/>
	<path class="st0" d="M87.72,6.5V1.62h0.43v4.51h1.61V6.5H87.72z M87.72,6.5"/>
	<rect x="90.43" y="1.62" class="st0" width="0.43" height="4.88"/>
	<path class="st0" d="M94.33,6.5l-2-4.39V6.5h-0.43V1.62h0.66l2.01,4.39V1.62h0.43V6.5H94.33z M94.33,6.5"/>
	<path class="st0" d="M96.03,6.5V1.62h2.21v0.36h-1.78v1.82h1.69v0.36h-1.69v1.96h1.82V6.5H96.03z M96.03,6.5"/>
	<path class="st0" d="M56.61,11.9v-0.17c0-0.64-0.17-1.14-0.51-1.48c-0.34-0.35-0.82-0.53-1.44-0.54c-0.44,0-0.82,0.06-1.12,0.19
		c-0.31,0.13-0.57,0.35-0.76,0.66c-0.2,0.31-0.34,0.69-0.43,1.16c-0.09,0.46-0.14,1.04-0.14,1.74v1.5c0,0.71,0.03,1.34,0.07,1.89
		c0.05,0.55,0.17,1.01,0.36,1.38c0.19,0.37,0.44,0.65,0.76,0.84c0.32,0.19,0.77,0.29,1.34,0.29c0.68,0,1.28-0.12,1.8-0.35v-3.93
		h-2.21V14.3h3.15v5.38c-0.42,0.14-0.88,0.25-1.37,0.34c-0.49,0.09-0.95,0.14-1.39,0.14c-0.83,0-1.48-0.13-1.95-0.39
		c-0.47-0.26-0.82-0.61-1.07-1.06c-0.24-0.45-0.38-0.99-0.42-1.62c-0.04-0.63-0.07-1.3-0.09-2v-1.12c0-0.64,0.02-1.27,0.07-1.88
		c0.05-0.61,0.18-1.15,0.41-1.62c0.22-0.47,0.56-0.85,1.04-1.14c0.47-0.29,1.11-0.44,1.93-0.44c0.55,0,1.01,0.07,1.38,0.2
		c0.37,0.13,0.68,0.33,0.92,0.6c0.24,0.27,0.4,0.58,0.49,0.95c0.09,0.36,0.14,0.78,0.15,1.26H56.61z M56.61,11.9"/>
	<path class="st0" d="M59.66,19.95V9.12h0.96v10.02h3.59v0.81H59.66z M59.66,19.95"/>
	<path class="st0" d="M71.93,15.02c0,0.69-0.03,1.34-0.07,1.96c-0.05,0.62-0.19,1.17-0.42,1.64c-0.23,0.47-0.57,0.84-1,1.12
		c-0.44,0.28-1.05,0.42-1.85,0.42c-1.05,0-1.84-0.32-2.38-0.94c-0.54-0.63-0.81-1.57-0.81-2.84v-3.67c0-0.54,0.06-1.05,0.18-1.52
		c0.12-0.47,0.31-0.88,0.57-1.21c0.26-0.34,0.6-0.62,1.02-0.83c0.42-0.21,0.91-0.31,1.49-0.3c0.59,0,1.09,0.1,1.5,0.3
		c0.41,0.2,0.75,0.48,1.02,0.83c0.27,0.35,0.46,0.76,0.59,1.24c0.12,0.48,0.18,1.01,0.18,1.59V15.02z M70.95,13.23
		c0-0.46-0.02-0.9-0.07-1.32c-0.05-0.42-0.16-0.8-0.32-1.14c-0.16-0.34-0.4-0.61-0.7-0.79c-0.31-0.19-0.71-0.29-1.21-0.3
		c-0.51,0-0.91,0.1-1.22,0.32c-0.3,0.21-0.53,0.48-0.69,0.81c-0.16,0.33-0.26,0.7-0.3,1.11c-0.04,0.41-0.06,0.82-0.07,1.23v2.73
		c0,1.19,0.16,2.06,0.5,2.62c0.33,0.56,0.93,0.84,1.79,0.86c0.6,0,1.06-0.14,1.38-0.44c0.32-0.29,0.55-0.66,0.68-1.11
		c0.13-0.45,0.2-0.96,0.23-1.53c0.02-0.57,0.03-1.13,0.03-1.69V13.23z M70.95,13.23"/>
	<path class="st0" d="M79.62,17.02c0,1.04-0.25,1.79-0.73,2.24c-0.49,0.45-1.29,0.68-2.4,0.69h-2.67V9.12h2.86
		c0.98,0,1.68,0.21,2.1,0.63c0.42,0.42,0.63,1.12,0.63,2.1c0,0.36-0.02,0.67-0.07,0.93c-0.05,0.26-0.14,0.49-0.26,0.69
		c-0.12,0.2-0.28,0.37-0.48,0.5c-0.2,0.13-0.46,0.25-0.78,0.34c0.33,0.09,0.61,0.2,0.84,0.33c0.23,0.13,0.41,0.3,0.56,0.51
		c0.14,0.21,0.24,0.47,0.3,0.77C79.57,16.22,79.61,16.59,79.62,17.02L79.62,17.02z M78.42,11.82c0-0.65-0.12-1.12-0.35-1.42
		c-0.23-0.3-0.6-0.45-1.11-0.46h-2.19v4.05h1.77c0.64,0,1.11-0.17,1.41-0.52C78.25,13.1,78.41,12.56,78.42,11.82L78.42,11.82z
		 M78.63,17c0-0.76-0.16-1.32-0.48-1.66c-0.32-0.35-0.81-0.53-1.48-0.54h-1.89v4.35h1.68c0.31,0,0.6-0.02,0.87-0.08
		c0.27-0.05,0.5-0.16,0.69-0.33c0.19-0.17,0.34-0.38,0.45-0.64C78.57,17.83,78.63,17.47,78.63,17L78.63,17z M78.63,17"/>
	<path class="st0" d="M87.45,19.95l-0.87-2.85h-4.24l-0.86,2.85h-0.96l3.42-10.83h1.14l3.38,10.83H87.45z M84.47,10.17l-1.84,6.12
		h3.7L84.47,10.17z M84.47,10.17"/>
	<path class="st0" d="M89.67,19.95V9.12h0.96v10.02h3.59v0.81H89.67z M89.67,19.95"/>
	<path class="st0" d="M104.72,16.91c0,0.48-0.05,0.92-0.16,1.32c-0.11,0.4-0.3,0.74-0.56,1.02c-0.26,0.28-0.57,0.5-0.94,0.68
		c-0.37,0.17-0.82,0.25-1.35,0.24c-0.76,0-1.34-0.14-1.75-0.43c-0.41-0.29-0.71-0.68-0.9-1.16c-0.19-0.48-0.3-1-0.33-1.57
		c-0.03-0.57-0.04-1.16-0.04-1.75c0-0.65,0-1.23,0.01-1.74c0.01-0.51,0.04-0.98,0.08-1.39c0.15-2.13,1.17-3.2,3.07-3.2
		c0.88,0,1.56,0.23,2.06,0.69c0.49,0.46,0.73,1.2,0.73,2.23v0.21h-0.99c0-0.05,0-0.1,0-0.14c0-0.04,0-0.07,0.01-0.1
		c0-1.39-0.6-2.09-1.81-2.09c-0.53,0-0.94,0.12-1.23,0.38c-0.29,0.25-0.5,0.56-0.64,0.93c-0.14,0.37-0.22,0.78-0.24,1.23
		c-0.02,0.45-0.04,0.87-0.04,1.26v2.95c0,0.89,0.18,1.59,0.54,2.1c0.36,0.51,0.87,0.77,1.53,0.77c0.39,0,0.71-0.07,0.96-0.23
		c0.25-0.15,0.45-0.34,0.6-0.59c0.15-0.24,0.25-0.5,0.3-0.79c0.05-0.29,0.08-0.58,0.09-0.89h1.02V16.91z M104.72,16.91"/>
	<path class="st0" d="M106.34,19.95V9.12h0.96v10.02h3.58v0.81H106.34z M106.34,19.95"/>
	<path class="st0" d="M118.29,19.95l-0.87-2.85h-4.25l-0.86,2.85h-0.96l3.42-10.83h1.14l3.38,10.83H118.29z M115.31,10.17
		l-1.84,6.12h3.7L115.31,10.17z M115.31,10.17"/>
	<path class="st0" d="M126.18,17.37c0,1.84-0.96,2.76-2.88,2.76c-0.93,0-1.66-0.22-2.19-0.66c-0.53-0.44-0.79-1.13-0.79-2.07v-0.45
		h0.99v0.21c0,0.41,0.05,0.75,0.14,1.04c0.09,0.28,0.22,0.5,0.39,0.66c0.17,0.16,0.39,0.28,0.65,0.36c0.26,0.08,0.54,0.12,0.85,0.1
		c0.29,0,0.55-0.03,0.78-0.09c0.23-0.06,0.43-0.16,0.59-0.3c0.16-0.14,0.28-0.34,0.36-0.59c0.08-0.25,0.12-0.56,0.14-0.95
		c0-0.26-0.02-0.48-0.06-0.67c-0.04-0.19-0.12-0.38-0.25-0.56c-0.13-0.18-0.31-0.35-0.52-0.5c-0.22-0.15-0.5-0.34-0.84-0.56
		l-1.11-0.64c-0.3-0.17-0.56-0.35-0.79-0.53c-0.23-0.18-0.43-0.38-0.62-0.6c-0.18-0.22-0.31-0.48-0.39-0.78
		c-0.08-0.3-0.13-0.64-0.14-1c0-0.84,0.25-1.48,0.73-1.94c0.49-0.45,1.2-0.67,2.12-0.67c0.43,0,0.82,0.04,1.17,0.13
		c0.35,0.09,0.65,0.24,0.89,0.45c0.24,0.21,0.43,0.48,0.57,0.81c0.14,0.33,0.21,0.73,0.21,1.21v0.34h-0.97v-0.15
		c0-0.69-0.15-1.19-0.45-1.5c-0.3-0.31-0.78-0.47-1.43-0.48c-1.24,0-1.86,0.56-1.86,1.7c0,0.27,0.02,0.5,0.07,0.7
		c0.05,0.2,0.14,0.39,0.27,0.55c0.13,0.17,0.3,0.34,0.51,0.5c0.21,0.16,0.48,0.34,0.82,0.54l1.17,0.71
		c0.39,0.23,0.71,0.44,0.94,0.63c0.24,0.19,0.44,0.39,0.59,0.6c0.15,0.21,0.25,0.44,0.29,0.7
		C126.14,16.67,126.17,16.99,126.18,17.37L126.18,17.37z M126.18,17.37"/>
	<path class="st0" d="M133.68,17.37c0,1.84-0.96,2.76-2.88,2.76c-0.93,0-1.66-0.22-2.19-0.66c-0.53-0.44-0.79-1.13-0.79-2.07v-0.45
		h0.99v0.21c0,0.41,0.05,0.75,0.14,1.04c0.09,0.28,0.22,0.5,0.39,0.66c0.17,0.16,0.39,0.28,0.65,0.36c0.26,0.08,0.54,0.12,0.85,0.1
		c0.29,0,0.55-0.03,0.78-0.09c0.23-0.06,0.43-0.16,0.59-0.3c0.16-0.14,0.28-0.34,0.36-0.59c0.08-0.25,0.12-0.56,0.14-0.95
		c0-0.26-0.02-0.48-0.06-0.67c-0.04-0.19-0.12-0.38-0.25-0.56c-0.13-0.18-0.3-0.35-0.52-0.5c-0.22-0.15-0.5-0.34-0.84-0.56
		l-1.11-0.64c-0.3-0.17-0.56-0.35-0.79-0.53c-0.23-0.18-0.43-0.38-0.62-0.6c-0.18-0.22-0.31-0.48-0.39-0.78
		c-0.08-0.3-0.13-0.64-0.14-1c0-0.84,0.25-1.48,0.73-1.94c0.49-0.45,1.2-0.67,2.12-0.67c0.43,0,0.82,0.04,1.17,0.13
		c0.35,0.09,0.65,0.24,0.89,0.45c0.24,0.21,0.43,0.48,0.57,0.81c0.14,0.33,0.21,0.73,0.21,1.21v0.34h-0.97v-0.15
		c0-0.69-0.15-1.19-0.45-1.5c-0.3-0.31-0.78-0.47-1.43-0.48c-1.24,0-1.86,0.56-1.86,1.7c0,0.27,0.02,0.5,0.07,0.7
		c0.05,0.2,0.14,0.39,0.27,0.55c0.13,0.17,0.3,0.34,0.51,0.5c0.21,0.16,0.48,0.34,0.82,0.54l1.17,0.71
		c0.39,0.23,0.71,0.44,0.94,0.63c0.24,0.19,0.44,0.39,0.59,0.6c0.15,0.21,0.25,0.44,0.28,0.7
		C133.65,16.67,133.67,16.99,133.68,17.37L133.68,17.37z M133.68,17.37"/>
	<path class="st0" d="M141.16,11.68c0,0.41-0.03,0.76-0.09,1.07c-0.06,0.3-0.15,0.55-0.29,0.75c-0.13,0.2-0.31,0.37-0.54,0.51
		c-0.23,0.14-0.5,0.24-0.81,0.3c0.55,0.07,0.94,0.25,1.17,0.53c0.23,0.28,0.36,0.73,0.38,1.35l0.06,2.49l0.1,1.27h-0.97
		c-0.02-0.14-0.04-0.31-0.05-0.51c-0.01-0.2-0.02-0.37-0.04-0.51l-0.03-0.48l-0.04-2.01c-0.01-0.34-0.05-0.62-0.12-0.84
		c-0.07-0.22-0.19-0.4-0.34-0.54c-0.16-0.14-0.38-0.23-0.65-0.27c-0.27-0.04-0.59-0.07-0.97-0.09h-1.44v5.25h-0.96V9.12h2.76
		c0.47,0,0.89,0.03,1.25,0.09c0.36,0.06,0.66,0.18,0.9,0.36c0.24,0.18,0.42,0.44,0.54,0.78C141.09,10.69,141.16,11.14,141.16,11.68
		L141.16,11.68z M140.18,11.66c0-0.48-0.07-0.84-0.21-1.08c-0.14-0.24-0.33-0.4-0.57-0.49c-0.24-0.09-0.53-0.14-0.87-0.15
		c-0.34-0.01-0.71-0.01-1.11,0h-0.93v3.96h1.23c0.4,0,0.75-0.02,1.05-0.06c0.3-0.04,0.56-0.14,0.78-0.29
		c0.22-0.15,0.38-0.38,0.46-0.68C140.1,12.57,140.16,12.16,140.18,11.66L140.18,11.66z M140.18,11.66"/>
	<path class="st0" d="M149.45,15.02c0,0.69-0.02,1.34-0.07,1.96c-0.05,0.62-0.19,1.17-0.42,1.64c-0.23,0.47-0.56,0.84-1,1.12
		c-0.44,0.28-1.05,0.42-1.84,0.42c-1.05,0-1.85-0.32-2.39-0.94c-0.54-0.63-0.81-1.57-0.81-2.84v-3.67c0-0.54,0.06-1.05,0.18-1.52
		c0.12-0.47,0.31-0.88,0.57-1.21c0.26-0.34,0.6-0.62,1.02-0.83c0.42-0.21,0.91-0.31,1.48-0.3c0.59,0,1.09,0.1,1.5,0.3
		c0.41,0.2,0.75,0.48,1.02,0.83c0.27,0.35,0.46,0.76,0.59,1.24c0.12,0.48,0.18,1.01,0.18,1.59V15.02z M148.47,13.23
		c0-0.46-0.02-0.9-0.07-1.32c-0.05-0.42-0.16-0.8-0.32-1.14c-0.16-0.34-0.39-0.61-0.7-0.79c-0.31-0.19-0.71-0.29-1.21-0.3
		c-0.51,0-0.91,0.1-1.21,0.32c-0.3,0.21-0.53,0.48-0.69,0.81c-0.16,0.33-0.26,0.7-0.3,1.11c-0.04,0.41-0.06,0.82-0.07,1.23v2.73
		c0,1.19,0.17,2.06,0.5,2.62c0.33,0.56,0.93,0.84,1.79,0.86c0.6,0,1.06-0.14,1.38-0.44c0.32-0.29,0.55-0.66,0.68-1.11
		c0.13-0.45,0.21-0.96,0.23-1.53c0.02-0.57,0.03-1.13,0.03-1.69V13.23z M148.47,13.23"/>
	<path class="st0" d="M157.79,15.02c0,0.69-0.02,1.34-0.07,1.96c-0.05,0.62-0.19,1.17-0.42,1.64c-0.23,0.47-0.56,0.84-1,1.12
		c-0.44,0.28-1.06,0.42-1.84,0.42c-1.05,0-1.85-0.32-2.39-0.94c-0.54-0.63-0.81-1.57-0.81-2.84v-3.67c0-0.54,0.06-1.05,0.18-1.52
		c0.12-0.47,0.31-0.88,0.57-1.21c0.26-0.34,0.6-0.62,1.02-0.83c0.42-0.21,0.91-0.31,1.48-0.3c0.59,0,1.09,0.1,1.5,0.3
		c0.41,0.2,0.75,0.48,1.02,0.83c0.27,0.35,0.46,0.76,0.58,1.24c0.12,0.48,0.18,1.01,0.18,1.59V15.02z M156.81,13.23
		c0-0.46-0.02-0.9-0.08-1.32c-0.05-0.42-0.16-0.8-0.31-1.14c-0.16-0.34-0.4-0.61-0.71-0.79c-0.31-0.19-0.71-0.29-1.21-0.3
		c-0.51,0-0.91,0.1-1.21,0.32c-0.3,0.21-0.53,0.48-0.69,0.81c-0.16,0.33-0.26,0.7-0.3,1.11c-0.04,0.41-0.07,0.82-0.08,1.23v2.73
		c0,1.19,0.17,2.06,0.5,2.62c0.33,0.56,0.93,0.84,1.79,0.86c0.6,0,1.06-0.14,1.38-0.44c0.32-0.29,0.55-0.66,0.68-1.11
		c0.13-0.45,0.21-0.96,0.23-1.53c0.02-0.57,0.03-1.13,0.03-1.69V13.23z M156.81,13.23"/>
	<path class="st0" d="M168.25,19.95v-9.88l-3.21,9.88h-1.11l-3.25-9.88v9.88h-0.91V9.12h1.57l3.18,9.73l3.12-9.73h1.53v10.83H168.25
		z M168.25,19.95"/>
</g>
</svg>
