<?xml version="1.0" encoding="utf-8"?>
<!-- Generator: Adobe Illustrator 26.3.1, SVG Export Plug-In . SVG Version: 6.00 Build 0)  -->
<svg version="1.1" id="Layer_1" xmlns="http://www.w3.org/2000/svg" xmlns:xlink="http://www.w3.org/1999/xlink" x="0px" y="0px"
	 viewBox="0 0 80 60" style="enable-background:new 0 0 80 60;" xml:space="preserve">
<style type="text/css">
	.st0{fill:#FFFFFF;}
	.st1{fill:#FFCB05;}
	.st2{clip-path:url(#SVGID_00000012473835825574322270000007197727209048971940_);fill:#FFFFFF;}
	.st3{fill:#00274C;}
	.st4{clip-path:url(#SVGID_00000092446265012047554970000011127578023136625572_);fill:#00274C;}
</style>
<g>
	<path class="st0" d="M67.29,57.51v-0.17c0.22-0.02,0.38-0.03,0.38-0.21c0-0.06-0.02-0.13-0.04-0.19l-0.09-0.33h-1.12l-0.1,0.28
		c-0.02,0.07-0.04,0.13-0.04,0.2c0,0.23,0.24,0.24,0.43,0.25v0.17h-1.31v-0.17c0.33-0.02,0.44-0.08,0.56-0.41l0.86-2.36l-0.05-0.08
		c0.37-0.12,0.47-0.18,0.63-0.29c0.06,0.21,0.07,0.24,0.14,0.47l0.71,2.16c0.12,0.38,0.18,0.48,0.52,0.51v0.18H67.29z M67.01,54.96
		l-0.46,1.32h0.91L67.01,54.96z M55.94,56.8c-0.14,0.23-0.48,0.79-1.36,0.79c-0.96,0-1.58-0.71-1.58-1.64c0-0.86,0.53-1.71,1.6-1.71
		c0.57,0,0.86,0.24,1.05,0.38l0.22-0.2l0.02,0.96l-0.14,0.03c-0.05-0.19-0.14-0.33-0.34-0.56c-0.1-0.11-0.33-0.31-0.66-0.31
		c-0.57,0-1.03,0.47-1.03,1.29c0,0.7,0.37,1.36,1.11,1.36c0.56,0,0.77-0.31,0.93-0.55L55.94,56.8z M56.48,57.51v-0.17
		c0.36-0.03,0.36-0.11,0.36-0.41c0-0.11,0-0.23,0-0.34v-1.33c0-0.21,0-0.41-0.02-0.51c-0.01-0.19-0.1-0.22-0.36-0.24v-0.17h1.36
		v0.17c-0.26,0.02-0.36,0.04-0.39,0.21c-0.02,0.11-0.03,0.34-0.03,0.53v0.44c0.28,0.02,0.47,0.02,0.73,0.02
		c0.27,0,0.48-0.01,0.75-0.02v-0.54c0-0.58-0.01-0.6-0.44-0.64v-0.17h1.38v0.17c-0.37,0.04-0.37,0.05-0.37,0.65v1.34
		c0,0.13,0,0.53,0.02,0.62c0.02,0.17,0.12,0.2,0.35,0.22v0.17h-1.38v-0.17c0.32-0.04,0.41-0.05,0.43-0.27
		c0.01-0.09,0.01-0.21,0.01-0.44v-0.59c-0.25-0.01-0.46-0.02-0.72-0.02c-0.27,0-0.49,0.01-0.77,0.02v0.59
		c0.01,0.66,0.02,0.66,0.43,0.7v0.18H56.48z M60.4,57.51v-0.17c0.31-0.04,0.38-0.08,0.38-0.41v-1.7c0-0.66,0-0.68-0.38-0.73v-0.17
		h1.32v0.17c-0.37,0.04-0.37,0.05-0.37,0.73v1.29c0,0.11,0,0.47,0.01,0.56c0.02,0.2,0.11,0.24,0.36,0.26v0.17H60.4z M51.35,57.51
		v-0.17c0.31-0.04,0.37-0.08,0.38-0.41v-1.7c0-0.66,0-0.68-0.38-0.73v-0.17h1.32v0.17c-0.38,0.04-0.38,0.05-0.38,0.73v1.29
		c0,0.11,0.01,0.47,0.02,0.56c0.02,0.2,0.11,0.24,0.36,0.26v0.17H51.35z M49.34,57.51v-0.17c0.4-0.03,0.4-0.05,0.41-0.63v-1.6
		l-1.11,2.45h-0.28l-1.02-2.48l-0.02,1.87c0,0.31,0.03,0.37,0.37,0.39v0.18h-1.1v-0.18c0.26-0.01,0.36-0.05,0.37-0.26
		c0.01-0.09,0.02-0.36,0.03-0.53l0.04-1.33c0-0.11,0-0.26,0-0.37c0-0.32-0.06-0.34-0.34-0.34v-0.17h1l0.99,2.41l1.09-2.41h0.97v0.19
		c-0.38,0.02-0.38,0.06-0.38,0.56v1.31c0,0.22,0,0.49,0.02,0.65c0.02,0.23,0.11,0.27,0.36,0.3v0.17L49.34,57.51L49.34,57.51z
		 M68.99,57.51v-0.17c0.26-0.02,0.36-0.02,0.4-0.2c0.04-0.21,0.06-2.1,0.06-2.43c-0.18-0.16-0.25-0.19-0.46-0.21v-0.17h0.96
		c0.26,0.38,0.32,0.46,0.79,1.04l0.89,1.1v-1.43c0-0.5-0.02-0.53-0.52-0.55v-0.17h1.25v0.17c-0.35,0-0.38,0.07-0.38,0.59l-0.04,2.45
		h-0.19l-0.29-0.36c-0.14-0.18-0.29-0.36-0.43-0.54l-1.25-1.55v1.65c0,0.51,0.04,0.53,0.52,0.58v0.18H68.99z M42.46,55.92
		c0,1.1-0.75,1.67-1.59,1.67c-0.92,0-1.64-0.67-1.64-1.68c0-0.87,0.58-1.65,1.6-1.65C41.79,54.26,42.46,54.95,42.46,55.92
		L42.46,55.92z M40.87,57.3c0.18,0,0.44-0.09,0.63-0.4c0.22-0.34,0.27-0.66,0.26-1.07c-0.01-0.41-0.13-0.76-0.36-1.01
		c-0.1-0.11-0.3-0.26-0.57-0.26c-0.26,0-0.46,0.17-0.56,0.28c-0.23,0.25-0.33,0.61-0.33,1.02c0,0.41,0.05,0.73,0.29,1.07
		C40.44,57.22,40.69,57.3,40.87,57.3L40.87,57.3z M42.78,57.33v0.18h1.32v-0.18c-0.33-0.03-0.37-0.07-0.38-0.41v-0.91h0.35
		c0.36,0,0.54,0.04,0.56,0.39h0.16v-1.05h-0.16c-0.02,0.34-0.11,0.38-0.5,0.38h-0.42v-1.1c0.11-0.02,0.18-0.02,0.38-0.02
		c0.63,0,0.82,0,0.91,0.49h0.16l-0.05-0.78h-2.33v0.17c0.23,0.02,0.33,0.04,0.36,0.18c0.02,0.1,0.03,0.45,0.03,0.58v1.12
		c0,0.08-0.01,0.47-0.01,0.54C43.15,57.27,43.11,57.3,42.78,57.33L42.78,57.33z M15.45,57.49v-0.17c0.31-0.04,0.38-0.07,0.38-0.41
		v-1.69c0-0.66,0-0.68-0.38-0.73v-0.17h1.32v0.17c-0.37,0.04-0.37,0.05-0.37,0.73v1.28c0,0.11,0,0.47,0.01,0.56
		c0.02,0.2,0.11,0.24,0.36,0.26v0.17H15.45z M29.46,57.49v-0.17c0.31-0.04,0.38-0.07,0.38-0.41v-1.69c0-0.66,0-0.68-0.38-0.73v-0.17
		h1.32v0.17c-0.38,0.04-0.38,0.05-0.38,0.73v1.28c0,0.11,0,0.47,0.02,0.56c0.02,0.2,0.11,0.24,0.36,0.26v0.17H29.46z M11.58,57.49
		v-0.17c0.27-0.01,0.36-0.02,0.4-0.2c0.04-0.21,0.05-2.1,0.06-2.43c-0.17-0.16-0.25-0.19-0.46-0.21v-0.17h0.95
		c0.26,0.38,0.33,0.46,0.79,1.05l0.89,1.1v-1.42c-0.01-0.51-0.02-0.53-0.53-0.55v-0.17h1.25v0.17c-0.34,0-0.38,0.08-0.38,0.59
		l-0.05,2.46h-0.19l-0.28-0.36c-0.14-0.18-0.29-0.36-0.43-0.54l-1.26-1.55v1.65c0,0.51,0.04,0.53,0.52,0.58v0.18H11.58z
		 M26.83,56.49l0.16-0.02c0.18,0.52,0.47,0.8,0.95,0.8c0.34,0,0.63-0.14,0.63-0.48c0-0.36-0.34-0.5-0.5-0.57
		c-0.12-0.05-0.26-0.09-0.39-0.14c-0.26-0.09-0.75-0.3-0.75-0.91c0-0.59,0.47-0.93,1.01-0.93c0.21,0,0.46,0.04,0.73,0.21l0.2-0.14
		l0.1,0.95l-0.16,0.03c-0.05-0.21-0.1-0.3-0.22-0.47c-0.15-0.2-0.36-0.29-0.62-0.29c-0.34,0-0.53,0.16-0.53,0.41
		c0,0.38,0.38,0.51,0.73,0.63c0.18,0.06,0.33,0.11,0.46,0.18c0.25,0.15,0.46,0.43,0.46,0.81c0,0.55-0.45,1-1.12,1
		c-0.43,0-0.7-0.17-0.82-0.25l-0.26-0.19L26.83,56.49z M32.06,57.49v-0.14c0.29-0.01,0.38-0.11,0.38-0.36v-2.34h-0.4
		c-0.36,0-0.6-0.01-0.62,0.55h-0.17l0.03-0.89h2.89l0.03,0.89h-0.17c-0.03-0.57-0.27-0.55-0.62-0.55H33v2.34
		c0,0.25,0.08,0.36,0.37,0.36v0.14H32.06z M9.15,54.31v0.17c-0.42,0.03-0.42,0.04-0.43,0.72v0.75c0,0.39,0.01,0.72,0.21,1.02
		c0.16,0.24,0.44,0.27,0.58,0.27c0.46,0,0.71-0.23,0.82-0.61c0.09-0.3,0.09-0.86,0.09-1.22c0-0.12,0-0.5,0-0.6
		c-0.02-0.29-0.17-0.3-0.45-0.33V54.3h1.21v0.17c-0.3,0-0.36,0.07-0.38,0.38c0,0.07-0.04,0.96-0.04,1.09
		c-0.01,0.24-0.02,0.48-0.08,0.71c-0.22,0.86-1.05,0.9-1.27,0.9c-0.18,0-0.54-0.03-0.83-0.23c-0.47-0.32-0.48-0.8-0.48-1.31v-0.72
		c0-0.34,0-0.5-0.02-0.58c-0.03-0.2-0.12-0.24-0.36-0.25v-0.17H9.15z M20.42,54.31v0.17c-0.3,0.04-0.35,0.13-0.61,0.76l-0.97,2.31
		h-0.17l-0.87-2.34c-0.21-0.61-0.24-0.68-0.56-0.73v-0.17h1.51v0.17c-0.26,0.01-0.42,0.02-0.42,0.2c0,0.09,0.02,0.17,0.11,0.44
		l0.56,1.61l0.64-1.67c0.04-0.11,0.1-0.25,0.1-0.34c0-0.23-0.23-0.24-0.43-0.24v-0.17H20.42z M35.49,57.49v-0.17
		c0.25-0.03,0.35-0.03,0.41-0.1c0.07-0.07,0.07-0.15,0.07-0.5v-0.56l-0.84-1.31c-0.23-0.34-0.23-0.35-0.54-0.37V54.3h1.65v0.18
		c-0.33,0.01-0.48,0.02-0.48,0.17c0,0.09,0.06,0.19,0.14,0.32l0.48,0.8l0.45-0.79c0.08-0.16,0.13-0.25,0.13-0.32
		c0-0.15-0.13-0.16-0.35-0.17V54.3h1.24v0.18c-0.32,0.01-0.41,0.11-0.77,0.7L36.58,56v0.66c0,0.58,0,0.62,0.48,0.65v0.17H35.49z
		 M23.14,57.49c0-0.23,0.04-0.61,0.07-0.82h-0.15c-0.11,0.57-0.43,0.54-0.89,0.54c-0.43,0-0.51-0.12-0.51-0.32v-0.89h0.34
		c0.39,0,0.5,0.03,0.5,0.39h0.16v-1.05h-0.16c-0.03,0.28-0.09,0.38-0.5,0.38h-0.34v-1.12h0.39c0.54,0,0.73,0.04,0.8,0.47H23
		l-0.02-0.75h-2.27v0.17c0.23,0.02,0.33,0.04,0.36,0.18c0.02,0.1,0.02,0.45,0.02,0.57v1.12c0,0.09,0,0.47-0.01,0.55
		c-0.01,0.34-0.05,0.38-0.38,0.41v0.18H23.14z M65.25,56.1v0.17c-0.29,0.02-0.29,0.1-0.3,0.7v0.24c-0.24,0.15-0.59,0.37-1.22,0.37
		c-1.09,0-1.61-0.83-1.61-1.66c0-1.02,0.69-1.68,1.55-1.68c0.54,0,0.86,0.21,1.12,0.36l0.16-0.19l0.02,0.99l-0.13,0.02
		c-0.07-0.19-0.16-0.41-0.4-0.65c-0.11-0.1-0.31-0.23-0.63-0.23c-0.55,0-1.02,0.47-1.02,1.38c0,0.73,0.36,1.36,0.98,1.36
		c0.36,0,0.54-0.25,0.55-0.27c0.06-0.08,0.07-0.16,0.07-0.3c-0.02-0.41-0.07-0.42-0.42-0.45V56.1H65.25z M24.62,55.78
		c0.09,0.02,0.21,0.03,0.3,0.03c0.36,0,0.64-0.28,0.65-0.54c0.02-0.37-0.16-0.69-0.75-0.69c-0.08,0-0.13,0-0.2,0.01V55.78z
		 M24.62,56.47c0,0.73,0,0.83,0.39,0.84v0.18h-1.33v-0.18c0.34-0.03,0.38-0.08,0.39-0.43c0-0.13,0-0.28,0-0.41v-1.15
		c0-0.38-0.01-0.52-0.02-0.62c-0.02-0.18-0.11-0.21-0.37-0.23v-0.17l1.44,0c0.79,0,1.04,0.37,1.04,0.82c0,0.3-0.19,0.7-0.63,0.84
		l0.56,0.98c0.2,0.38,0.31,0.46,0.57,0.5v0.11c-0.07,0-0.14,0.01-0.21,0.01c-0.6,0-0.84-0.21-1.09-0.74l-0.18-0.37
		c-0.19-0.4-0.25-0.38-0.55-0.38L24.62,56.47L24.62,56.47z M24.62,56.47"/>
	<path class="st1" d="M40.04,27.58L31.3,15.64v8.68h3.47v8.58H18.71v-8.58h3.26V10.98h-3.26V2.4h12.62l8.71,12.02L48.74,2.4h12.61
		v8.57H58.1v13.35h3.26v8.58H45.29v-8.58h3.47v-8.68L40.04,27.58z M40.04,27.58"/>
	<path class="st0" d="M12.11,43.34v-4.72l-1.2,4.72H9.69l-1.14-4.72v4.72H7.35v-6.12h2.03l0.97,4.16l1.02-4.16h1.99v6.12H12.11z
		 M12.11,43.34"/>
	<rect x="14.43" y="37.22" class="st0" width="1.28" height="6.12"/>
	<path class="st0" d="M20.67,41.46c0,1.3-0.64,1.95-1.91,1.95c-0.49,0-0.87-0.08-1.14-0.25C17.35,43,17.14,42.77,17,42.48
		c-0.14-0.29-0.22-0.62-0.25-1c-0.02-0.38-0.04-0.78-0.04-1.2c0-0.43,0.02-0.84,0.04-1.22c0.03-0.39,0.11-0.72,0.25-1.01
		c0.14-0.29,0.34-0.52,0.63-0.68c0.28-0.17,0.68-0.25,1.2-0.25c1.18,0,1.78,0.6,1.78,1.81v0.21h-1.25v-0.13
		c0-0.64-0.2-0.96-0.61-0.96c-0.18,0-0.32,0.05-0.41,0.17c-0.1,0.11-0.17,0.27-0.22,0.47c-0.05,0.2-0.08,0.45-0.09,0.73
		c-0.01,0.28-0.01,0.6-0.01,0.95c0,0.3,0.01,0.58,0.01,0.84c0.01,0.25,0.04,0.48,0.09,0.67c0.05,0.19,0.12,0.34,0.23,0.43
		c0.11,0.09,0.25,0.15,0.42,0.16c0.16,0,0.28-0.04,0.36-0.12c0.09-0.08,0.15-0.18,0.19-0.3c0.05-0.12,0.07-0.26,0.09-0.4
		c0.01-0.14,0.02-0.27,0.02-0.38h1.26V41.46z M20.67,41.46"/>
	<path class="st0" d="M24.28,43.34v-2.7h-1.45v2.7h-1.29v-6.12h1.29v2.42h1.45v-2.42h1.29v6.12H24.28z M24.28,43.34"/>
	<rect x="26.68" y="37.22" class="st0" width="1.28" height="6.12"/>
	<path class="st0" d="M32.64,43.28c-0.22,0.04-0.43,0.07-0.66,0.09c-0.23,0.02-0.45,0.03-0.67,0.04c-0.2,0-0.41-0.02-0.62-0.04
		c-0.21-0.03-0.41-0.08-0.6-0.16c-0.19-0.08-0.36-0.18-0.51-0.32c-0.15-0.13-0.26-0.3-0.35-0.52c-0.05-0.12-0.09-0.25-0.12-0.39
		c-0.04-0.14-0.06-0.29-0.08-0.46c-0.02-0.17-0.03-0.36-0.04-0.58c-0.01-0.21-0.02-0.46-0.02-0.75c0-0.41,0.02-0.8,0.05-1.17
		c0.03-0.38,0.12-0.71,0.27-1c0.15-0.29,0.37-0.53,0.65-0.69c0.29-0.17,0.68-0.26,1.19-0.26c0.63,0,1.12,0.16,1.46,0.47
		c0.34,0.32,0.51,0.77,0.52,1.36v0.16h-1.27v-0.3c0-0.25-0.07-0.44-0.2-0.58c-0.14-0.14-0.31-0.21-0.52-0.21
		c-0.2,0-0.36,0.05-0.47,0.16c-0.11,0.11-0.19,0.25-0.25,0.44c-0.05,0.19-0.09,0.41-0.1,0.66c-0.01,0.25-0.02,0.53-0.02,0.83v0.26
		c0,0.33,0,0.62,0.02,0.89c0.01,0.27,0.05,0.49,0.1,0.69c0.06,0.19,0.15,0.34,0.28,0.44c0.13,0.1,0.3,0.16,0.52,0.16
		c0.23,0,0.45-0.04,0.65-0.12v-1.35h-0.7v-0.95h1.97v3.1L32.64,43.28z M32.64,43.28"/>
	<path class="st0" d="M37.44,43.34l-0.34-1.36h-1.75l-0.35,1.36h-1.27l1.7-6.12h1.69l1.66,6.12H37.44z M36.2,38.4l-0.6,2.66h1.23
		L36.2,38.4z M36.2,38.4"/>
	<path class="st0" d="M42.27,43.34l-1.68-4.47v4.47h-1.18v-6.12h1.72l1.64,4.24v-4.24h1.19v6.12H42.27z M42.27,43.34"/>
	<path class="st0" d="M51.1,40.24c0,0.45-0.01,0.88-0.03,1.26c-0.02,0.39-0.11,0.73-0.25,1.03c-0.14,0.29-0.36,0.52-0.64,0.68
		c-0.29,0.16-0.7,0.24-1.23,0.25c-0.5,0-0.89-0.09-1.16-0.26c-0.27-0.18-0.48-0.41-0.62-0.7c-0.14-0.29-0.23-0.64-0.25-1.04
		c-0.03-0.4-0.05-0.82-0.05-1.25c0-0.42,0.01-0.82,0.05-1.2c0.03-0.38,0.13-0.71,0.27-1c0.15-0.29,0.36-0.51,0.64-0.68
		c0.28-0.16,0.66-0.25,1.15-0.26c0.52,0,0.92,0.08,1.21,0.24c0.29,0.16,0.5,0.38,0.64,0.67c0.14,0.29,0.22,0.62,0.25,1
		C51.09,39.35,51.1,39.77,51.1,40.24L51.1,40.24z M49.8,40.14c0-0.33,0-0.62-0.01-0.89c0-0.27-0.03-0.49-0.08-0.68
		c-0.05-0.19-0.13-0.33-0.24-0.44c-0.11-0.11-0.27-0.16-0.48-0.16c-0.2,0-0.36,0.05-0.46,0.14c-0.11,0.09-0.19,0.25-0.25,0.45
		c-0.06,0.2-0.09,0.46-0.09,0.76c0,0.3-0.01,0.66-0.02,1.07c0,0.35,0,0.65,0.02,0.92c0.01,0.27,0.05,0.49,0.11,0.67
		c0.06,0.18,0.14,0.32,0.24,0.41c0.1,0.09,0.24,0.14,0.44,0.15c0.2,0,0.36-0.05,0.47-0.15c0.11-0.09,0.2-0.25,0.25-0.45
		c0.05-0.2,0.08-0.45,0.09-0.75C49.79,40.91,49.8,40.56,49.8,40.14L49.8,40.14z M49.8,40.14"/>
	<path class="st0" d="M54.98,43.34l-1.68-4.47v4.47h-1.19v-6.12h1.72l1.64,4.24v-4.24h1.19v6.12H54.98z M54.98,43.34"/>
	<path class="st0" d="M57.76,43.34v-6.12h1.3v5.1h1.9v1.02H57.76z M57.76,43.34"/>
	<rect x="61.52" y="37.22" class="st0" width="1.28" height="6.12"/>
	<path class="st0" d="M66.76,43.34l-1.68-4.47v4.47h-1.18v-6.12h1.72l1.64,4.24v-4.24h1.19v6.12H66.76z M66.76,43.34"/>
	<path class="st0" d="M69.53,43.34v-6.12h3.34v0.94h-2.06v1.51h1.9v0.94h-1.9v1.77h2.13v0.96H69.53z M69.53,43.34"/>
	<path class="st0" d="M6.51,50.83c-0.22,0.04-0.43,0.07-0.66,0.09c-0.23,0.02-0.45,0.04-0.67,0.04c-0.2,0-0.41-0.01-0.62-0.04
		c-0.21-0.03-0.41-0.08-0.6-0.16c-0.19-0.08-0.36-0.18-0.51-0.31c-0.14-0.13-0.26-0.31-0.35-0.53c-0.04-0.12-0.09-0.25-0.12-0.39
		c-0.04-0.13-0.06-0.29-0.08-0.46c-0.02-0.17-0.03-0.36-0.04-0.57c-0.01-0.22-0.02-0.47-0.02-0.75c0-0.41,0.02-0.8,0.05-1.17
		c0.03-0.37,0.12-0.71,0.27-1c0.15-0.29,0.37-0.52,0.66-0.7c0.29-0.17,0.68-0.25,1.18-0.26c0.63,0,1.12,0.16,1.46,0.48
		c0.34,0.32,0.51,0.77,0.52,1.36v0.16H5.71v-0.3c0-0.24-0.07-0.43-0.2-0.58c-0.13-0.14-0.31-0.21-0.52-0.21
		c-0.2,0-0.36,0.05-0.47,0.16c-0.11,0.11-0.2,0.26-0.25,0.44c-0.06,0.19-0.09,0.41-0.1,0.66c-0.01,0.26-0.01,0.53-0.01,0.83v0.26
		c0,0.33,0,0.62,0.01,0.89c0.01,0.27,0.05,0.5,0.1,0.69c0.06,0.19,0.15,0.34,0.28,0.44c0.13,0.1,0.31,0.16,0.52,0.16
		c0.23,0,0.44-0.04,0.65-0.12V48.6h-0.7v-0.95h1.97v3.1L6.51,50.83z M6.51,50.83"/>
	<path class="st0" d="M8.08,50.9v-6.12h1.3v5.1h1.9v1.02H8.08z M8.08,50.9"/>
	<path class="st0" d="M16.03,47.8c0,0.45-0.01,0.87-0.04,1.26c-0.02,0.39-0.11,0.73-0.25,1.02c-0.14,0.3-0.36,0.52-0.64,0.68
		c-0.29,0.16-0.7,0.24-1.23,0.25c-0.5,0-0.89-0.09-1.16-0.26c-0.27-0.18-0.48-0.41-0.62-0.71c-0.14-0.29-0.23-0.64-0.25-1.04
		c-0.03-0.4-0.05-0.82-0.05-1.25c0-0.43,0.01-0.83,0.05-1.2c0.03-0.38,0.13-0.71,0.27-1c0.15-0.29,0.36-0.52,0.64-0.68
		c0.28-0.16,0.66-0.25,1.15-0.25c0.52,0,0.92,0.08,1.21,0.24c0.29,0.16,0.5,0.38,0.64,0.67c0.14,0.29,0.22,0.62,0.25,1
		C16.01,46.9,16.03,47.32,16.03,47.8L16.03,47.8z M14.72,47.7c0-0.33,0-0.63-0.01-0.89c0-0.27-0.03-0.49-0.08-0.68
		c-0.05-0.18-0.13-0.33-0.24-0.44c-0.11-0.11-0.27-0.16-0.48-0.16c-0.2,0-0.36,0.05-0.47,0.14c-0.11,0.1-0.19,0.25-0.25,0.45
		c-0.06,0.2-0.09,0.46-0.09,0.76c0,0.3-0.01,0.66-0.02,1.08c0,0.34,0,0.65,0.02,0.91c0.01,0.27,0.05,0.49,0.11,0.67
		c0.06,0.18,0.14,0.32,0.24,0.41c0.1,0.09,0.24,0.14,0.44,0.14c0.2,0,0.36-0.05,0.47-0.14c0.11-0.1,0.2-0.25,0.25-0.45
		c0.05-0.2,0.08-0.45,0.09-0.75C14.71,48.47,14.72,48.11,14.72,47.7L14.72,47.7z M14.72,47.7"/>
	<path class="st0" d="M21.19,49.23c0,0.33-0.04,0.6-0.14,0.82c-0.09,0.21-0.22,0.38-0.39,0.51c-0.17,0.12-0.37,0.21-0.6,0.26
		c-0.24,0.05-0.49,0.08-0.78,0.08h-2.25v-6.12h2.1c0.26,0,0.52,0.02,0.75,0.06c0.24,0.04,0.45,0.11,0.62,0.22
		c0.17,0.11,0.32,0.26,0.42,0.46c0.11,0.2,0.16,0.47,0.15,0.8c0,0.79-0.35,1.25-1.04,1.4c0.4,0.06,0.69,0.21,0.87,0.45
		C21.1,48.4,21.19,48.76,21.19,49.23L21.19,49.23z M19.85,46.48c0-0.2-0.03-0.36-0.1-0.46c-0.07-0.11-0.16-0.18-0.28-0.22
		c-0.12-0.04-0.25-0.06-0.4-0.07c-0.15,0-0.3-0.01-0.46-0.01h-0.29v1.56h0.72c0.27,0,0.46-0.06,0.6-0.18
		c0.14-0.12,0.21-0.3,0.21-0.54V46.48z M19.92,49.07c0-0.18-0.02-0.32-0.06-0.43c-0.04-0.11-0.1-0.2-0.2-0.26
		c-0.09-0.06-0.19-0.11-0.31-0.13c-0.12-0.02-0.27-0.04-0.44-0.04h-0.59v1.74h0.36c0.19,0,0.35-0.01,0.5-0.02
		c0.14-0.01,0.28-0.04,0.39-0.09c0.11-0.05,0.2-0.14,0.25-0.26C19.88,49.46,19.91,49.29,19.92,49.07L19.92,49.07z M19.92,49.07"/>
	<path class="st0" d="M25.43,50.9l-0.34-1.36h-1.75L23,50.9h-1.26l1.7-6.12h1.69l1.66,6.12H25.43z M24.19,45.96l-0.6,2.66h1.24
		L24.19,45.96z M24.19,45.96"/>
	<path class="st0" d="M27.38,50.9v-6.12h1.3v5.1h1.9v1.02H27.38z M27.38,50.9"/>
	<path class="st0" d="M36.91,49.01c0,1.3-0.64,1.95-1.91,1.95c-0.49,0-0.87-0.08-1.14-0.25c-0.27-0.16-0.48-0.39-0.62-0.68
		c-0.14-0.29-0.22-0.62-0.25-1c-0.02-0.38-0.04-0.77-0.04-1.19c0-0.43,0.02-0.84,0.04-1.22c0.03-0.38,0.11-0.72,0.25-1.01
		c0.14-0.29,0.34-0.52,0.63-0.68c0.28-0.16,0.68-0.25,1.19-0.25c1.18,0,1.78,0.61,1.78,1.82v0.21h-1.25v-0.14
		c0-0.64-0.2-0.96-0.61-0.96c-0.18,0-0.32,0.06-0.41,0.17c-0.1,0.11-0.17,0.27-0.22,0.48c-0.05,0.2-0.08,0.45-0.09,0.73
		c-0.01,0.29-0.02,0.6-0.02,0.95c0,0.3,0,0.59,0.02,0.84c0.01,0.25,0.04,0.48,0.09,0.67c0.05,0.19,0.12,0.34,0.23,0.43
		c0.11,0.1,0.25,0.15,0.42,0.16c0.16,0,0.28-0.04,0.36-0.12c0.09-0.08,0.15-0.18,0.2-0.3c0.05-0.12,0.08-0.26,0.09-0.4
		c0.01-0.14,0.02-0.27,0.02-0.38h1.27V49.01z M36.91,49.01"/>
	<path class="st0" d="M37.74,50.9v-6.12h1.3v5.1h1.9v1.02H37.74z M37.74,50.9"/>
	<path class="st0" d="M44.73,50.9l-0.34-1.36h-1.75l-0.35,1.36h-1.26l1.7-6.12h1.69l1.66,6.12H44.73z M43.49,45.96l-0.6,2.66h1.24
		L43.49,45.96z M43.49,45.96"/>
	<path class="st0" d="M50.48,49.24c0,0.33-0.05,0.61-0.15,0.84c-0.1,0.23-0.25,0.41-0.44,0.54c-0.19,0.14-0.41,0.23-0.66,0.29
		c-0.25,0.05-0.53,0.09-0.85,0.09c-0.28,0-0.53-0.03-0.76-0.09c-0.23-0.06-0.42-0.15-0.59-0.29c-0.16-0.13-0.29-0.3-0.37-0.5
		c-0.09-0.2-0.13-0.44-0.14-0.74v-0.39h1.3v0.16c0,0.32,0.05,0.55,0.16,0.7c0.11,0.14,0.29,0.21,0.54,0.22
		c0.21,0,0.38-0.06,0.5-0.18c0.12-0.12,0.18-0.29,0.18-0.5c0-0.16-0.04-0.31-0.11-0.42c-0.07-0.11-0.19-0.22-0.36-0.33l-0.71-0.43
		c-0.24-0.14-0.45-0.28-0.62-0.41c-0.17-0.12-0.31-0.25-0.43-0.39c-0.12-0.13-0.2-0.29-0.25-0.46c-0.05-0.17-0.08-0.38-0.09-0.62
		c-0.01-0.3,0.04-0.57,0.14-0.78c0.1-0.21,0.25-0.39,0.44-0.52c0.19-0.13,0.41-0.23,0.64-0.29c0.24-0.06,0.5-0.09,0.79-0.09
		c1.19,0,1.78,0.52,1.78,1.56v0.28h-1.25v-0.15c0-0.53-0.21-0.79-0.62-0.79c-0.18,0-0.34,0.06-0.45,0.19
		c-0.11,0.12-0.17,0.29-0.17,0.49c0,0.28,0.14,0.5,0.41,0.67l1.21,0.77c0.16,0.11,0.3,0.2,0.42,0.3c0.12,0.1,0.21,0.21,0.29,0.33
		c0.07,0.13,0.13,0.26,0.18,0.4C50.47,48.86,50.49,49.03,50.48,49.24L50.48,49.24z M50.48,49.24"/>
	<path class="st0" d="M55.2,49.24c0,0.33-0.05,0.61-0.15,0.84c-0.1,0.23-0.25,0.41-0.44,0.54c-0.19,0.14-0.41,0.23-0.66,0.29
		c-0.25,0.05-0.53,0.09-0.85,0.09c-0.28,0-0.54-0.03-0.77-0.09c-0.23-0.06-0.42-0.15-0.58-0.29c-0.16-0.13-0.29-0.3-0.38-0.5
		c-0.09-0.2-0.13-0.44-0.14-0.74v-0.39h1.3v0.16c0,0.32,0.05,0.55,0.16,0.7c0.11,0.14,0.29,0.21,0.53,0.22
		c0.21,0,0.38-0.06,0.5-0.18c0.12-0.12,0.18-0.29,0.18-0.5c0-0.16-0.04-0.31-0.11-0.42c-0.07-0.11-0.2-0.22-0.37-0.33l-0.71-0.43
		c-0.24-0.14-0.45-0.28-0.62-0.41c-0.17-0.12-0.32-0.25-0.43-0.39c-0.12-0.13-0.2-0.29-0.25-0.46c-0.05-0.17-0.08-0.38-0.09-0.62
		c0-0.3,0.04-0.57,0.14-0.78c0.1-0.21,0.25-0.39,0.44-0.52c0.19-0.13,0.41-0.23,0.64-0.29c0.23-0.06,0.5-0.09,0.78-0.09
		c1.19,0,1.78,0.52,1.78,1.56v0.28h-1.25v-0.15c0-0.53-0.21-0.79-0.62-0.79c-0.19,0-0.34,0.06-0.45,0.19
		c-0.11,0.12-0.17,0.29-0.17,0.49c0,0.28,0.14,0.5,0.42,0.67l1.21,0.77c0.16,0.11,0.3,0.2,0.41,0.3c0.12,0.1,0.21,0.21,0.29,0.33
		c0.07,0.13,0.13,0.26,0.18,0.4C55.18,48.86,55.2,49.03,55.2,49.24L55.2,49.24z M55.2,49.24"/>
	<path class="st0" d="M58.74,50.9c-0.07-0.15-0.11-0.28-0.12-0.39c0-0.11-0.01-0.23-0.01-0.37v-0.8c0-0.18-0.02-0.34-0.04-0.46
		c-0.03-0.12-0.08-0.22-0.15-0.3c-0.07-0.07-0.17-0.12-0.3-0.16c-0.13-0.03-0.3-0.05-0.5-0.05h-0.24v2.53h-1.29v-6.12h2.11
		c0.25,0,0.47,0.03,0.67,0.08c0.2,0.05,0.38,0.14,0.52,0.26c0.15,0.12,0.27,0.29,0.35,0.5c0.09,0.21,0.13,0.47,0.13,0.78
		c0,0.44-0.09,0.78-0.27,1.02c-0.18,0.24-0.46,0.4-0.84,0.46c0.28,0.04,0.5,0.1,0.65,0.2c0.14,0.1,0.25,0.22,0.32,0.38
		c0.07,0.15,0.11,0.33,0.12,0.54c0.01,0.21,0.03,0.44,0.04,0.7l0.03,0.43c0.01,0.12,0.02,0.25,0.02,0.38
		c0.01,0.13,0.03,0.26,0.07,0.38H58.74z M58.58,46.55c0-0.2-0.02-0.35-0.06-0.46c-0.04-0.11-0.11-0.19-0.2-0.24
		c-0.09-0.05-0.2-0.09-0.33-0.11c-0.13-0.02-0.28-0.02-0.45-0.02h-0.18v1.7h0.31c0.15,0,0.29-0.01,0.4-0.04
		c0.11-0.02,0.21-0.07,0.28-0.13c0.07-0.07,0.12-0.16,0.16-0.27C58.55,46.87,58.57,46.72,58.58,46.55L58.58,46.55z M58.58,46.55"/>
	<path class="st0" d="M64.99,47.8c0,0.45-0.01,0.87-0.04,1.26c-0.02,0.39-0.1,0.73-0.25,1.02c-0.14,0.3-0.35,0.52-0.64,0.68
		c-0.29,0.16-0.7,0.24-1.23,0.25c-0.5,0-0.89-0.09-1.16-0.26c-0.28-0.18-0.48-0.41-0.62-0.71c-0.14-0.29-0.23-0.64-0.25-1.04
		c-0.03-0.4-0.05-0.82-0.05-1.25c0-0.43,0.02-0.83,0.05-1.2c0.03-0.38,0.13-0.71,0.27-1c0.15-0.29,0.36-0.52,0.64-0.68
		c0.28-0.16,0.66-0.25,1.15-0.25c0.52,0,0.92,0.08,1.21,0.24c0.29,0.16,0.5,0.38,0.64,0.67c0.14,0.29,0.22,0.62,0.25,1
		C64.98,46.9,64.99,47.32,64.99,47.8L64.99,47.8z M63.69,47.7c0-0.33,0-0.63-0.01-0.89c0-0.27-0.03-0.49-0.08-0.68
		c-0.05-0.18-0.13-0.33-0.24-0.44c-0.11-0.11-0.27-0.16-0.48-0.16c-0.2,0-0.36,0.05-0.47,0.14c-0.11,0.1-0.19,0.25-0.25,0.45
		c-0.05,0.2-0.09,0.46-0.09,0.76c0,0.3-0.01,0.66-0.02,1.08c0,0.34,0,0.65,0.02,0.91c0.01,0.27,0.05,0.49,0.11,0.67
		c0.06,0.18,0.15,0.32,0.24,0.41c0.1,0.09,0.24,0.14,0.44,0.14c0.2,0,0.36-0.05,0.47-0.14c0.11-0.1,0.2-0.25,0.25-0.45
		c0.05-0.2,0.08-0.45,0.09-0.75C63.68,48.47,63.69,48.11,63.69,47.7L63.69,47.7z M63.69,47.7"/>
	<path class="st0" d="M70.17,47.8c0,0.45-0.01,0.87-0.03,1.26c-0.02,0.39-0.1,0.73-0.25,1.02c-0.14,0.3-0.36,0.52-0.64,0.68
		c-0.29,0.16-0.7,0.24-1.23,0.25c-0.5,0-0.88-0.09-1.16-0.26c-0.28-0.18-0.49-0.41-0.63-0.71c-0.14-0.29-0.22-0.64-0.25-1.04
		c-0.03-0.4-0.04-0.82-0.05-1.25c0-0.43,0.02-0.83,0.05-1.2c0.04-0.38,0.13-0.71,0.27-1c0.15-0.29,0.36-0.52,0.63-0.68
		c0.28-0.16,0.66-0.25,1.16-0.25c0.52,0,0.92,0.08,1.21,0.24c0.29,0.16,0.5,0.38,0.64,0.67c0.13,0.29,0.21,0.62,0.24,1
		C70.16,46.9,70.17,47.32,70.17,47.8L70.17,47.8z M68.87,47.7c0-0.33,0-0.63-0.01-0.89c0-0.27-0.04-0.49-0.09-0.68
		c-0.05-0.18-0.13-0.33-0.23-0.44c-0.11-0.11-0.27-0.16-0.48-0.16c-0.2,0-0.36,0.05-0.46,0.14c-0.11,0.1-0.19,0.25-0.25,0.45
		c-0.06,0.2-0.09,0.46-0.09,0.76c-0.01,0.3-0.01,0.66-0.02,1.08c0,0.34,0.01,0.65,0.02,0.91c0.01,0.27,0.05,0.49,0.11,0.67
		c0.06,0.18,0.14,0.32,0.24,0.41c0.09,0.09,0.24,0.14,0.44,0.14c0.2,0,0.36-0.05,0.47-0.14c0.11-0.1,0.19-0.25,0.25-0.45
		c0.05-0.2,0.08-0.45,0.09-0.75C68.86,48.47,68.87,48.11,68.87,47.7L68.87,47.7z M68.87,47.7"/>
	<path class="st0" d="M75.91,50.9v-4.72l-1.19,4.72h-1.22l-1.14-4.72v4.72h-1.21v-6.12h2.02l0.97,4.16l1.02-4.16h1.99v6.12H75.91z
		 M75.91,50.9"/>
</g>
</svg>
