<?xml version="1.0" encoding="UTF-8"?>
<!DOCTYPE svg PUBLIC "-//W3C//DTD SVG 1.1//EN" "http://www.w3.org/Graphics/SVG/1.1/DTD/svg11.dtd">
<svg xmlns="http://www.w3.org/2000/svg" version="1.1" width="199px" height="49px" style="shape-rendering:geometricPrecision; text-rendering:geometricPrecision; image-rendering:optimizeQuality; fill-rule:evenodd; clip-rule:evenodd" xmlns:xlink="http://www.w3.org/1999/xlink">
<g><path style="opacity:1" fill="#fdfdfd" d="M -0.5,-0.5 C 65.8333,-0.5 132.167,-0.5 198.5,-0.5C 198.5,15.8333 198.5,32.1667 198.5,48.5C 132.167,48.5 65.8333,48.5 -0.5,48.5C -0.5,32.1667 -0.5,15.8333 -0.5,-0.5 Z"/></g>
<g><path style="opacity:1" fill="#febe18" d="M 41.5,34.5 C 40.8826,34.3893 40.3826,34.056 40,33.5C 33.9277,37.7568 27.761,41.7568 21.5,45.5C 14.6495,42.4904 8.14949,38.8238 2,34.5C 1.33333,26.8333 1.33333,19.1667 2,11.5C 7.9162,8.12578 13.7495,4.62578 19.5,1C 20.5,0.333333 21.5,0.333333 22.5,1C 28.7506,4.7081 34.9173,8.54143 41,12.5C 41.4997,19.8258 41.6663,27.1591 41.5,34.5 Z"/></g>
<g><path style="opacity:1" fill="#054ea0" d="M 78.5,15.5 C 78.5,20.8333 78.5,26.1667 78.5,31.5C 76.1667,31.5 73.8333,31.5 71.5,31.5C 71.5,26.1667 71.5,20.8333 71.5,15.5C 73.8333,15.5 76.1667,15.5 78.5,15.5 Z"/></g>
<g><path style="opacity:1" fill="#0f50a2" d="M 94.5,15.5 C 94.5,17.1667 94.5,18.8333 94.5,20.5C 85.1667,21.1667 85.1667,21.8333 94.5,22.5C 94.5,23.5 94.5,24.5 94.5,25.5C 85.1667,25.8333 85.1667,26.1667 94.5,26.5C 94.5,28.1667 94.5,29.8333 94.5,31.5C 89.8333,31.5 85.1667,31.5 80.5,31.5C 80.5,26.1667 80.5,20.8333 80.5,15.5C 85.1667,15.5 89.8333,15.5 94.5,15.5 Z"/></g>
<g><path style="opacity:1" fill="#0f50a2" d="M 96.5,15.5 C 101.833,15.5 107.167,15.5 112.5,15.5C 112.5,17.1667 112.5,18.8333 112.5,20.5C 111.167,20.5 109.833,20.5 108.5,20.5C 108.5,24.1667 108.5,27.8333 108.5,31.5C 106.167,31.5 103.833,31.5 101.5,31.5C 101.5,27.8333 101.5,24.1667 101.5,20.5C 99.8333,20.5 98.1667,20.5 96.5,20.5C 96.5,18.8333 96.5,17.1667 96.5,15.5 Z"/></g>
<g><path style="opacity:1" fill="#1b54a4" d="M 62.5,15.5 C 65.1873,15.3359 67.854,15.5026 70.5,16C 69.7476,16.6708 69.4142,17.5041 69.5,18.5C 67.9104,22.7676 66.4104,27.1009 65,31.5C 61.9433,32.4505 58.7766,32.7839 55.5,32.5C 54.0254,26.7463 52.3588,21.0796 50.5,15.5C 53.2469,15.1866 55.9135,15.52 58.5,16.5C 59.154,18.1151 59.654,19.7818 60,21.5C 60.9383,19.5115 61.7717,17.5115 62.5,15.5 Z"/></g>
<g><path style="opacity:1" fill="#d53030" d="M 114.5,15.5 C 119.511,15.3341 124.511,15.5007 129.5,16C 131.706,18.209 132.04,20.709 130.5,23.5C 133.335,26.6705 133.002,29.5038 129.5,32C 124.511,32.4993 119.511,32.6659 114.5,32.5C 114.5,26.8333 114.5,21.1667 114.5,15.5 Z"/></g>
<g><path style="opacity:1" fill="#d42b2d" d="M 153.5,30.5 C 151.735,31.4614 149.735,31.7947 147.5,31.5C 146.448,30.4695 145.114,29.8029 143.5,29.5C 141.007,30.4454 138.507,31.4454 136,32.5C 134.833,32.1667 133.667,31.8333 132.5,31.5C 134.211,26.1987 136.211,21.032 138.5,16C 141.833,15.3333 145.167,15.3333 148.5,16C 150.863,20.59 152.53,25.4233 153.5,30.5 Z"/></g>
<g><path style="opacity:1" fill="#d22328" d="M 174.5,15.5 C 174.5,20.8333 174.5,26.1667 174.5,31.5C 172.167,31.5 169.833,31.5 167.5,31.5C 166.263,30.0351 165.263,28.3684 164.5,26.5C 164.44,25.9569 164.107,25.6236 163.5,25.5C 162.534,27.396 162.201,29.396 162.5,31.5C 160.167,31.5 157.833,31.5 155.5,31.5C 155.5,26.1667 155.5,20.8333 155.5,15.5C 158.187,15.3359 160.854,15.5026 163.5,16C 166.529,23.2474 167.862,23.0807 167.5,15.5C 169.833,15.5 172.167,15.5 174.5,15.5 Z"/></g>
<g><path style="opacity:1" fill="#e88e92" d="M 174.5,15.5 C 175.489,20.9753 175.822,26.642 175.5,32.5C 172.615,32.8064 169.948,32.4731 167.5,31.5C 169.833,31.5 172.167,31.5 174.5,31.5C 174.5,26.1667 174.5,20.8333 174.5,15.5 Z"/></g>
<g><path style="opacity:1" fill="#dd575a" d="M 177.5,15.5 C 177.5,20.8333 177.5,26.1667 177.5,31.5C 180.167,31.5 182.833,31.5 185.5,31.5C 182.713,32.4767 179.713,32.81 176.5,32.5C 176.178,26.642 176.511,20.9753 177.5,15.5 Z"/></g>
<g><path style="opacity:1" fill="#d3272b" d="M 177.5,15.5 C 180.167,15.5 182.833,15.5 185.5,15.5C 185.101,21.6412 186.101,21.9746 188.5,16.5C 191.167,15.1667 193.833,15.1667 196.5,16.5C 195.035,18.5994 193.701,20.7661 192.5,23C 194.034,25.8994 195.701,28.7328 197.5,31.5C 191.792,33.7346 187.959,32.0679 186,26.5C 185.506,28.1341 185.34,29.8008 185.5,31.5C 182.833,31.5 180.167,31.5 177.5,31.5C 177.5,26.1667 177.5,20.8333 177.5,15.5 Z"/></g>
<g><path style="opacity:1" fill="#dc382c" d="M 8.5,16.5 C 10.5,16.5 12.5,16.5 14.5,16.5C 15.6003,24.0438 16.9336,24.2104 18.5,17C 23.419,16.1985 28.2523,16.3651 33,17.5C 32.202,21.3228 32.5353,24.9895 34,28.5C 33.5,29 33,29.5 32.5,30C 25.8085,30.8309 19.1418,30.6642 12.5,29.5C 10.7578,25.2746 9.42446,20.9413 8.5,16.5 Z"/></g>
<g><path style="opacity:1" fill="#c0d2e6" d="M 62.5,15.5 C 67.8333,14.1667 73.1667,14.1667 78.5,15.5C 76.1667,15.5 73.8333,15.5 71.5,15.5C 71.5,20.8333 71.5,26.1667 71.5,31.5C 73.8333,31.5 76.1667,31.5 78.5,31.5C 76.0521,32.4731 73.3854,32.8064 70.5,32.5C 70.8195,27.6367 70.4861,22.97 69.5,18.5C 69.4142,17.5041 69.7476,16.6708 70.5,16C 67.854,15.5026 65.1873,15.3359 62.5,15.5 Z"/></g>
<g><path style="opacity:1" fill="#adc4df" d="M 94.5,15.5 C 95.1667,15.5 95.8333,15.5 96.5,15.5C 96.5,17.1667 96.5,18.8333 96.5,20.5C 98.1667,20.5 99.8333,20.5 101.5,20.5C 101.5,24.1667 101.5,27.8333 101.5,31.5C 103.833,31.5 106.167,31.5 108.5,31.5C 106.052,32.4731 103.385,32.8064 100.5,32.5C 100.5,28.8333 100.5,25.1667 100.5,21.5C 98.8333,21.5 97.1667,21.5 95.5,21.5C 95.7678,23.099 95.4345,24.4324 94.5,25.5C 94.5,24.5 94.5,23.5 94.5,22.5C 85.1667,21.8333 85.1667,21.1667 94.5,20.5C 94.5,18.8333 94.5,17.1667 94.5,15.5 Z"/></g>
<g><path style="opacity:1" fill="#f09f9e" d="M 142.5,22.5 C 144.332,23.1405 144.665,24.1405 143.5,25.5C 142.614,24.675 142.281,23.675 142.5,22.5 Z"/></g>
<g><path style="opacity:1" fill="#f0a4a5" d="M 120.5,25.5 C 122.288,25.2148 123.955,25.5481 125.5,26.5C 124.667,26.8333 123.833,27.1667 123,27.5C 121.624,27.3158 120.791,26.6491 120.5,25.5 Z"/></g>
<g><path style="opacity:1" fill="#ea9b9e" d="M 164.5,26.5 C 163.539,28.2646 163.205,30.2646 163.5,32.5C 160.615,32.8064 157.948,32.4731 155.5,31.5C 157.833,31.5 160.167,31.5 162.5,31.5C 162.201,29.396 162.534,27.396 163.5,25.5C 164.107,25.6236 164.44,25.9569 164.5,26.5 Z"/></g>
<g><path style="opacity:1" fill="#7da4ce" d="M 94.5,26.5 C 95.4614,28.2646 95.7947,30.2646 95.5,32.5C 90.3054,32.8205 85.3054,32.4872 80.5,31.5C 85.1667,31.5 89.8333,31.5 94.5,31.5C 94.5,29.8333 94.5,28.1667 94.5,26.5 Z"/></g>
<g><path style="opacity:1" fill="#e68488" d="M 153.5,30.5 C 154.043,30.56 154.376,30.8933 154.5,31.5C 152.027,32.7969 149.693,32.7969 147.5,31.5C 149.735,31.7947 151.735,31.4614 153.5,30.5 Z"/></g>
<g><path style="opacity:1" fill="#fbdd41" d="M 41.5,34.5 C 41.0629,36.0744 40.0629,37.2411 38.5,38C 33.8333,40.6667 29.1667,43.3333 24.5,46C 23.2506,46.7401 22.2506,46.5735 21.5,45.5C 27.761,41.7568 33.9277,37.7568 40,33.5C 40.3826,34.056 40.8826,34.3893 41.5,34.5 Z"/></g>
</svg>
