<svg id="Layer_1" data-name="Layer 1" xmlns="http://www.w3.org/2000/svg" xmlns:xlink="http://www.w3.org/1999/xlink" viewBox="0 0 1848.13 725.69"><defs><style>.cls-1{fill:#440641;}.cls-2{fill:#fff;}.cls-2,.cls-3,.cls-4,.cls-5,.cls-6{stroke:#fff;stroke-miterlimit:10;stroke-width:0.1px;}.cls-3{fill:none;}.cls-4{fill:url(#linear-gradient);}.cls-5{fill:url(#linear-gradient-2);}.cls-6{fill:url(#linear-gradient-3);}.cls-7{fill:url(#linear-gradient-4);}.cls-8{fill:url(#linear-gradient-5);}</style><linearGradient id="linear-gradient" x1="511.24" y1="301.72" x2="499.66" y2="-290.38" gradientUnits="userSpaceOnUse"><stop offset="0.13" stop-color="#0f7087"/><stop offset="0.35" stop-color="#519fb2"/><stop offset="0.65" stop-color="#a6dce9"/><stop offset="0.79" stop-color="#c7f4ff"/></linearGradient><linearGradient id="linear-gradient-2" x1="324.28" y1="275.03" x2="-90.19" y2="599.54" gradientUnits="userSpaceOnUse"><stop offset="0.15" stop-color="#ffc803"/><stop offset="0.23" stop-color="#ffd230"/><stop offset="0.32" stop-color="#ffdb5c"/><stop offset="0.41" stop-color="#ffe280"/><stop offset="0.51" stop-color="#ffe89c"/><stop offset="0.6" stop-color="#ffedb0"/><stop offset="0.7" stop-color="#ffefbc"/><stop offset="0.79" stop-color="#fff0c0"/></linearGradient><linearGradient id="linear-gradient-3" x1="399.45" y1="477.81" x2="921.2" y2="766.1" gradientUnits="userSpaceOnUse"><stop offset="0" stop-color="#d9167e"/><stop offset="0.19" stop-color="#d9167e"/><stop offset="0.23" stop-color="#db1f83"/><stop offset="0.28" stop-color="#e13792"/><stop offset="0.29" stop-color="#e13993"/><stop offset="0.37" stop-color="#e64ea0"/><stop offset="0.48" stop-color="#ee73b6"/><stop offset="0.51" stop-color="#f388c3"/><stop offset="0.56" stop-color="#f89fd1"/><stop offset="0.62" stop-color="#fcb0db"/><stop offset="0.68" stop-color="#febae1"/><stop offset="0.76" stop-color="#ffbde3"/></linearGradient><linearGradient id="linear-gradient-4" x1="417.21" y1="370.15" x2="686.71" y2="676.4" gradientTransform="matrix(0.98, 0.09, -0.09, 0.91, 48.13, 34.09)" gradientUnits="userSpaceOnUse"><stop offset="0"/><stop offset="0.67" stop-color="#d1d1d1" stop-opacity="0"/></linearGradient><linearGradient id="linear-gradient-5" x1="408.65" y1="357.53" x2="539.5" y2="506.22" xlink:href="#linear-gradient-4"/></defs><title>DiceyLogoLarge</title><path class="cls-1" d="M1033.24,661.94q8.27,5.92,23.08,5.93a65.36,65.36,0,0,0,14.6-1.7,77.79,77.79,0,0,0,13.34-4.23,29.94,29.94,0,0,1,5.71,8.25,25.77,25.77,0,0,1,2.33,11.22q0,12.71-11.43,21T1044,710.63q-33.45,0-52.71-15t-19.26-49.75V451.53q3.38-.84,9.95-2.12a74.34,74.34,0,0,1,14.18-1.27q14.81,0,21.8,5.5t7,19.48v35.14h62.23a38.2,38.2,0,0,1,3.81,8.89,40.07,40.07,0,0,1,1.69,11.85c0,7.35-1.69,12.7-5.08,16.09s-7.9,5.08-13.54,5.08H1025v92.29Q1025,656,1033.24,661.94Z" transform="translate(-0.63 -2.73)"/><path class="cls-1" d="M1174,628.49q5.92,21.6,22,31.33t39.8,9.74a98.07,98.07,0,0,0,32.8-5.29q15-5.29,24.35-11.22a28.05,28.05,0,0,1,9.74,9.31,23.1,23.1,0,0,1,3.81,12.7,22.22,22.22,0,0,1-5.72,15,46.45,46.45,0,0,1-15.66,11.22,98.37,98.37,0,0,1-23.5,7.2,158.94,158.94,0,0,1-29.21,2.54q-25,0-45.51-6.78a92.58,92.58,0,0,1-35.14-20.53,95.23,95.23,0,0,1-22.86-34.08q-8.27-20.31-8.26-47.42,0-26.24,8-45.72a93.85,93.85,0,0,1,21.81-32.6,87.51,87.51,0,0,1,32-19.47A116,116,0,0,1,1221,498.1a107.1,107.1,0,0,1,38.1,6.56,87.52,87.52,0,0,1,29.63,18.2A83.3,83.3,0,0,1,1308,550.81a88.88,88.88,0,0,1,7,35.35q0,11.85-6.14,17.78t-17.14,7.62Zm47-90.17q-20.74,0-34.72,13.76t-15.66,39.16l94-14A47.18,47.18,0,0,0,1252.33,550Q1241.76,538.32,1221,538.32Z" transform="translate(-0.63 -2.73)"/><path class="cls-1" d="M1460.2,540.86a63.82,63.82,0,0,0-23.49,4.23,52.42,52.42,0,0,0-18.63,12.28,58.86,58.86,0,0,0-12.49,19.9q-4.66,11.85-4.66,27.51,0,31.34,16.51,47.21t42.76,15.88q14.82,0,25.62-4a145.08,145.08,0,0,0,19.26-8.68,37.11,37.11,0,0,1,9.53,9.74,22.78,22.78,0,0,1,3.59,12.71q0,14.39-16.93,23.7t-45.72,9.32a141.77,141.77,0,0,1-44.24-6.57,91.75,91.75,0,0,1-34.51-19.9,88.9,88.9,0,0,1-22.23-33.23q-7.83-19.89-7.83-46.15,0-26.67,8.47-46.78a93.86,93.86,0,0,1,23.07-33.44,94.89,94.89,0,0,1,34.09-19.9,129.08,129.08,0,0,1,41.48-6.56q28.37,0,45.3,9.95t16.94,24.34a22,22,0,0,1-3.6,12.28,33.41,33.41,0,0,1-8.26,8.89,157.09,157.09,0,0,0-18.84-8.68Q1475,540.86,1460.2,540.86Z" transform="translate(-0.63 -2.73)"/><path class="cls-1" d="M1726.87,519.67q-23.14-20.14-62.14-20.14a100.39,100.39,0,0,0-27.21,3.43,128,128,0,0,0-16.73,6V391.85q0-24.94-8-34.77t-25.48-9.83a56.08,56.08,0,0,0-16.25,2.27q-7.53,2.26-11.4,3.78V669.24a94.92,94.92,0,0,0,2.1,21.55c.68,7,2.94,12.22,7,15.3a20.89,20.89,0,0,0,3.11,1.84c5.22,3.9,12.29,5.91,21.27,5.91a56.15,56.15,0,0,0,16.26-2.27c5-1.51,8.81-2.78,11.41-3.78V552.08a97.67,97.67,0,0,1,13.09-6.05,61.24,61.24,0,0,1,21.42-3.65q18,0,29.14,9.64t11.15,31.07V686.38q0,14.14,7.28,19.71t22.72,5.58a75.48,75.48,0,0,0,14.36-1.29c4.42-.85,7.77-1.58,10.07-2.14V580.53Q1750,539.82,1726.87,519.67Z" transform="translate(-0.63 -2.73)"/><path class="cls-1" d="M1121,32.41a28.59,28.59,0,0,1,8.67-21q8.68-8.67,22.23-8.67t22,8.67a29,29,0,0,1,8.46,21,29.43,29.43,0,0,1-8.46,21.38q-8.48,8.68-22,8.68t-22.23-8.68A29.06,29.06,0,0,1,1121,32.41Zm4.23,61.39q3.39-.84,10-2.12a75.16,75.16,0,0,1,14.18-1.27q15.24,0,22.23,5.5t7,19.48v177c-2.27.57-5.58,1.27-10,2.12a74.41,74.41,0,0,1-14.18,1.27q-15.24,0-22.22-5.5t-7-19.48Z" transform="translate(-0.63 -2.73)"/><path class="cls-1" d="M1337.75,128.94a63.87,63.87,0,0,0-23.5,4.23,52.42,52.42,0,0,0-18.63,12.28,59,59,0,0,0-12.49,19.9q-4.67,11.85-4.66,27.51,0,31.33,16.52,47.21T1337.75,256q14.8,0,25.61-4a144.5,144.5,0,0,0,19.26-8.68,37,37,0,0,1,9.53,9.74,22.77,22.77,0,0,1,3.6,12.7q0,14.4-16.94,23.71t-45.72,9.32a141.77,141.77,0,0,1-44.24-6.57,91.75,91.75,0,0,1-34.51-19.9A88.88,88.88,0,0,1,1232.12,239q-7.84-19.89-7.83-46.15,0-26.67,8.46-46.78t23.07-33.44a94.89,94.89,0,0,1,34.09-19.9,129.17,129.17,0,0,1,41.48-6.56q28.36,0,45.3,9.95t16.94,24.34a22,22,0,0,1-3.6,12.28,33.54,33.54,0,0,1-8.25,8.89,157.82,157.82,0,0,0-18.84-8.68Q1352.56,128.94,1337.75,128.94Z" transform="translate(-0.63 -2.73)"/><path class="cls-1" d="M1476.61,216.57q5.92,21.6,22,31.33t39.8,9.74a98.12,98.12,0,0,0,32.81-5.29q15-5.29,24.34-11.22a28,28,0,0,1,9.74,9.31,23.1,23.1,0,0,1,3.81,12.7,22.17,22.17,0,0,1-5.72,15,46.45,46.45,0,0,1-15.66,11.22,98.29,98.29,0,0,1-23.49,7.2,159.05,159.05,0,0,1-29.22,2.54q-25,0-45.51-6.78a92.73,92.73,0,0,1-35.14-20.53,95.36,95.36,0,0,1-22.86-34.08q-8.25-20.33-8.25-47.42,0-26.23,8-45.72a93.87,93.87,0,0,1,21.8-32.6,87.55,87.55,0,0,1,32-19.47,115.89,115.89,0,0,1,38.52-6.35,107.11,107.11,0,0,1,38.11,6.56,87.62,87.62,0,0,1,29.63,18.2,83.18,83.18,0,0,1,19.26,27.95,88.72,88.72,0,0,1,7,35.35q0,11.85-6.14,17.78t-17.15,7.62Zm47-90.17q-20.74,0-34.71,13.76t-15.67,39.16l94-14A47.24,47.24,0,0,0,1554.93,138Q1544.34,126.4,1523.6,126.4Z" transform="translate(-0.63 -2.73)"/><path class="cls-1" d="M1061.93,19.71q-7-5.49-22.22-5.5a90,90,0,0,0-14.19,1,55.77,55.77,0,0,0-9.94,2.33V94.22a111.38,111.38,0,0,0-18.21-5.71,96.55,96.55,0,0,0-21.59-2.33,123.71,123.71,0,0,0-40.22,6.35A87,87,0,0,0,903.17,112q-13.75,13.13-21.8,33.24t-8,48q0,53.76,29.84,79.8t80.65,26q22.86,0,40.22-5.72t28-12.49q8.46-5.49,12.7-11.43t4.23-15.66V39.18Q1068.92,25.22,1061.93,19.71Zm-43.47,182.77-73.63,40.89a10.72,10.72,0,0,1-15.92-9.48l.87-84.82A10.72,10.72,0,0,1,946,140l72.76,43.93A10.72,10.72,0,0,1,1018.46,202.48Z" transform="translate(-0.63 -2.73)"/><path class="cls-1" d="M1840.75,96.24q-8-9.81-25.48-9.82A56.09,56.09,0,0,0,1799,88.68q-7.53,2.28-11.41,3.78v154.3a95.45,95.45,0,0,1-16,7.67,61.28,61.28,0,0,1-21.42,3.65q-18,0-29.14-9.64t-11.15-31.07V114.08q0-14.13-7.28-19.71T1679.9,88.8a75.43,75.43,0,0,0-14.36,1.28q-6.63,1.29-10.07,2.14V219.94q0,40.71,23.15,60.86t62.14,20.14a100.79,100.79,0,0,0,27.21-3.43,124.8,124.8,0,0,0,19.64-7.28V408.4q0,24.94,8,34.77t25.47,9.83a56.15,56.15,0,0,0,16.26-2.27q7.51-2.26,11.4-3.78V131Q1848.75,106.07,1840.75,96.24Z" transform="translate(-0.63 -2.73)"/><path class="cls-2" d="M335.9,161.4l284,171.5a41.43,41.43,0,0,1,20.2,36.63L816,365.83a72.76,72.76,0,0,0-9.75-36.66l-167.43-290a72.78,72.78,0,0,0-63-36.39H240.91a72.72,72.72,0,0,0-33.22,8l82.9,152A41.49,41.49,0,0,1,335.9,161.4Z" transform="translate(-0.63 -2.73)"/><path class="cls-2" d="M269.05,527.87l3.38-331.08a41.3,41.3,0,0,1,18.16-34l-82.9-152a72.82,72.82,0,0,0-29.83,28.35l-167.43,290a72.82,72.82,0,0,0,0,72.8L177.86,692a72.73,72.73,0,0,0,25.85,26.15L292,565.55A41.45,41.45,0,0,1,269.05,527.87Z" transform="translate(-0.63 -2.73)"/><path class="cls-2" d="M640.1,369.53a41.44,41.44,0,0,1-21.51,35.77L331.2,564.88a41.3,41.3,0,0,1-39.2.67L203.71,718.12a72.77,72.77,0,0,0,37.2,10.25H575.77a72.79,72.79,0,0,0,63-36.4L806.24,402A72.7,72.7,0,0,0,816,365.83Z" transform="translate(-0.63 -2.73)"/><path class="cls-2" d="M655.38,385,374.45,199.59c-27.42-18.1-66.07-3.57-69.26,26L272.53,528.37c-3.16,29.34,30.92,51.56,61.53,40.11L647.65,451.17C678.32,439.69,682.61,403,655.38,385Z" transform="translate(-0.63 -2.73)"/><path class="cls-2" d="M619.9,332.9l-284-171.5a41.91,41.91,0,0,0-63.47,35.39l-3.38,331.08a41.92,41.92,0,0,0,62.15,37L618.59,405.3a41.85,41.85,0,0,0,1.31-72.4Z" transform="translate(-0.63 -2.73)"/><path class="cls-3" d="M599.93,12.18H218.65a20.51,20.51,0,0,0-17.77,10.26L10.24,352.64a20.5,20.5,0,0,0,0,20.52l190.64,330.2a20.52,20.52,0,0,0,17.77,10.27H599.93a20.52,20.52,0,0,0,17.77-10.27l190.65-330.2a20.55,20.55,0,0,0,0-20.52L617.7,22.44A20.51,20.51,0,0,0,599.93,12.18Z" transform="translate(-0.63 -2.73)"/><path class="cls-2" d="M632.93,366.74l170-4.34M215.6,20.86l78.59,146.41m3.16,389.85-86.92,148.4m403.38-374.2L339.27,165.53c-26.8-16.18-61,2.91-61.36,34.21L274.63,519.8c-.31,31,33,50.84,60.09,35.78L612.54,401.31C639.72,386.22,640.42,347.39,613.81,331.32Z" transform="translate(-0.63 -2.73)"/><path class="cls-4" d="M337.82,166.8l276.49,167A40.38,40.38,0,0,1,634,369.42l171.23-3.6a70.73,70.73,0,0,0-9.48-35.68L632.72,47.8a70.87,70.87,0,0,0-61.38-35.43h-326A70.75,70.75,0,0,0,213,20.2l80.7,148A40.42,40.42,0,0,1,337.82,166.8Z" transform="translate(-0.63 -2.73)"/><path class="cls-5" d="M272.73,523.58,276,201.25a40.16,40.16,0,0,1,17.67-33.09L213,20.2a70.74,70.74,0,0,0-29,27.6L21,330.14A70.87,70.87,0,0,0,21,401L184,683.34a70.75,70.75,0,0,0,25.16,25.46l85.95-148.54A40.36,40.36,0,0,1,272.73,523.58Z" transform="translate(-0.63 -2.73)"/><path class="cls-6" d="M634,369.42a40.37,40.37,0,0,1-21,34.83L333.24,559.61a40.22,40.22,0,0,1-38.17.65L209.12,708.8a70.79,70.79,0,0,0,36.21,10h326a70.88,70.88,0,0,0,61.38-35.44L795.73,401a70.88,70.88,0,0,0,9.48-35.19Z" transform="translate(-0.63 -2.73)"/><path class="cls-7" d="M648.85,384.51,375.35,204c-26.7-17.62-64.33-3.48-67.44,25.35L276.12,524.07c-3.08,28.57,30.1,50.19,59.91,39l305.29-114.2C671.18,437.73,675.36,402,648.85,384.51Z" transform="translate(-0.63 -2.73)"/><path class="cls-2" d="M614.31,333.76l-276.49-167A40.79,40.79,0,0,0,276,201.25l-3.3,322.33a40.81,40.81,0,0,0,60.51,36L613,404.25a40.74,40.74,0,0,0,1.28-70.49Z" transform="translate(-0.63 -2.73)"/><path class="cls-8" d="M525.34,385,392.55,297.37c-13-8.56-31.24-1.69-32.75,12.31l-15.43,143.1c-1.5,13.87,14.61,24.37,29.08,19l148.23-55.45C536.18,410.86,538.21,393.52,525.34,385Z" transform="translate(-0.63 -2.73)"/><path class="cls-1" d="M522,351.8,374.88,262.93A21.71,21.71,0,0,0,342,281.27l-1.76,171.56A21.73,21.73,0,0,0,372.44,472l148.92-82.7A21.68,21.68,0,0,0,522,351.8Z" transform="translate(-0.63 -2.73)"/></svg>